<svg width="32" height="32" viewBox="0 0 32 32" fill="none" xmlns="http://www.w3.org/2000/svg">
<g clip-path="url(#clip0_4_99)">
<g filter="url(#filter0_dd_4_99)">
<path d="M8.7095 6.62747C8.80559 6.46106 8.95852 6.33655 9.13466 6.28135C9.31081 6.22615 9.49573 6.24477 9.64875 6.33312L10.8027 6.99935C11.0912 7.16591 11.1449 7.40606 11.1985 7.64621L11.4133 8.6068C11.4669 8.84695 11.5206 9.08709 11.8091 9.25365L13.54 10.253C13.8285 10.4196 14.0633 10.346 14.2981 10.2724L15.2374 9.97803C15.4722 9.90444 15.707 9.83085 15.9955 9.99741L27.9204 16.8822C28.0734 16.9706 28.182 17.1214 28.2223 17.3016C28.2625 17.4817 28.2312 17.6764 28.1351 17.8428L24.5124 24.1176C24.4163 24.284 24.2633 24.4085 24.0872 24.4637C23.9111 24.5189 23.7261 24.5003 23.5731 24.4119L11.6482 17.5271C11.3597 17.3605 11.1249 17.4341 10.8901 17.5077L9.95087 17.8021C9.71605 17.8757 9.48124 17.9493 9.19275 17.7827L7.46182 16.7833C7.17334 16.6168 7.11966 16.3766 7.06598 16.1365L6.85128 15.1759C6.7976 14.9357 6.74393 14.6956 6.45544 14.529L5.30149 13.8628C5.14846 13.7745 5.03987 13.6236 4.99961 13.4435C4.95934 13.2633 4.9907 13.0686 5.08678 12.9022L8.7095 6.62747Z" fill="#4C97FF" fill-opacity="0.8"/>
<path d="M8.7095 6.62747C8.80559 6.46106 8.95852 6.33655 9.13466 6.28135C9.31081 6.22615 9.49573 6.24477 9.64875 6.33312L10.8027 6.99935C11.0912 7.16591 11.1449 7.40606 11.1985 7.64621L11.4133 8.6068C11.4669 8.84695 11.5206 9.08709 11.8091 9.25365L13.54 10.253C13.8285 10.4196 14.0633 10.346 14.2981 10.2724L15.2374 9.97803C15.4722 9.90444 15.707 9.83085 15.9955 9.99741L27.9204 16.8822C28.0734 16.9706 28.182 17.1214 28.2223 17.3016C28.2625 17.4817 28.2312 17.6764 28.1351 17.8428L24.5124 24.1176C24.4163 24.284 24.2633 24.4085 24.0872 24.4637C23.9111 24.5189 23.7261 24.5003 23.5731 24.4119L11.6482 17.5271C11.3597 17.3605 11.1249 17.4341 10.8901 17.5077L9.95087 17.8021C9.71605 17.8757 9.48124 17.9493 9.19275 17.7827L7.46182 16.7833C7.17334 16.6168 7.11966 16.3766 7.06598 16.1365L6.85128 15.1759C6.7976 14.9357 6.74393 14.6956 6.45544 14.529L5.30149 13.8628C5.14846 13.7745 5.03987 13.6236 4.99961 13.4435C4.95934 13.2633 4.9907 13.0686 5.08678 12.9022L8.7095 6.62747Z" stroke="#3D79CC" stroke-opacity="0.8"/>
<path d="M8.7095 6.62747C8.80559 6.46106 8.95852 6.33655 9.13466 6.28135C9.31081 6.22615 9.49573 6.24477 9.64875 6.33312L10.8027 6.99935C11.0912 7.16591 11.1449 7.40606 11.1985 7.64621L11.4133 8.6068C11.4669 8.84695 11.5206 9.08709 11.8091 9.25365L13.54 10.253C13.8285 10.4196 14.0633 10.346 14.2981 10.2724L15.2374 9.97803C15.4722 9.90444 15.707 9.83085 15.9955 9.99741L27.9204 16.8822C28.0734 16.9706 28.182 17.1214 28.2223 17.3016C28.2625 17.4817 28.2312 17.6764 28.1351 17.8428L24.5124 24.1176C24.4163 24.284 24.2633 24.4085 24.0872 24.4637C23.9111 24.5189 23.7261 24.5003 23.5731 24.4119L11.6482 17.5271C11.3597 17.3605 11.1249 17.4341 10.8901 17.5077L9.95087 17.8021C9.71605 17.8757 9.48124 17.9493 9.19275 17.7827L7.46182 16.7833C7.17334 16.6168 7.11966 16.3766 7.06598 16.1365L6.85128 15.1759C6.7976 14.9357 6.74393 14.6956 6.45544 14.529L5.30149 13.8628C5.14846 13.7745 5.03987 13.6236 4.99961 13.4435C4.95934 13.2633 4.9907 13.0686 5.08678 12.9022L8.7095 6.62747Z" stroke="white"/>
</g>
<g filter="url(#filter1_i_4_99)">
<path d="M26.0467 17.3602C26.4241 17.5781 22.938 23.6161 22.5607 23.3982C22.1833 23.1803 21.0668 19.0135 21.2847 18.6362C20.6894 18.7957 14.2907 18.6372 12.0265 17.3299C11.2765 16.8969 10.5723 16.2006 10.0328 15.4651C9.83712 15.1983 9.65885 14.922 9.5006 14.6439C8.77817 13.3745 8.47292 12.0674 8.83133 11.4462C9.18975 10.825 10.4746 10.4358 11.9353 10.4269C12.2553 10.4249 12.5836 10.4412 12.9126 10.4773C13.8193 10.5767 14.7625 10.8589 15.5125 11.292C17.7768 12.5992 21.1252 18.0409 21.2847 18.6362C21.5026 18.2588 25.6693 17.1423 26.0467 17.3602Z" fill="#FF9090"/>
</g>
<path d="M21.2847 18.6362C21.1252 18.0409 17.7768 12.5992 15.5125 11.292C14.7625 10.8589 13.8193 10.5767 12.9126 10.4773M21.2847 18.6362C21.0668 19.0135 22.1833 23.1803 22.5607 23.3982C22.938 23.6161 26.4241 17.5781 26.0467 17.3602C25.6693 17.1423 21.5026 18.2588 21.2847 18.6362ZM21.2847 18.6362C20.6894 18.7957 14.2907 18.6372 12.0265 17.3299C11.2765 16.8969 10.5723 16.2006 10.0328 15.4651M10.0328 15.4651C9.83712 15.1983 9.65885 14.922 9.5006 14.6439C8.77817 13.3745 8.47292 12.0674 8.83133 11.4462C9.18975 10.825 10.4746 10.4358 11.9353 10.4269C12.2553 10.4249 12.5836 10.4412 12.9126 10.4773M10.0328 15.4651C10.0328 15.4651 11.6587 14.392 12.2274 13.407C12.7961 12.422 12.9126 10.4773 12.9126 10.4773" stroke="black"/>
<g filter="url(#filter2_i_4_99)">
<circle cx="10.7178" cy="12.5354" r="0.435754" transform="rotate(-60 10.7178 12.5354)" fill="black"/>
</g>
</g>
<defs>
<filter id="filter0_dd_4_99" x="-22.5176" y="-21.2498" width="84.257" height="79.2446" filterUnits="userSpaceOnUse" color-interpolation-filters="sRGB">
<feFlood flood-opacity="0" result="BackgroundImageFix"/>
<feColorMatrix in="SourceAlpha" type="matrix" values="0 0 0 0 0 0 0 0 0 0 0 0 0 0 0 0 0 0 127 0" result="hardAlpha"/>
<feOffset dx="3" dy="3"/>
<feGaussianBlur stdDeviation="15"/>
<feComposite in2="hardAlpha" operator="out"/>
<feColorMatrix type="matrix" values="0 0 0 0 0 0 0 0 0 0 0 0 0 0 0 0 0 0 0.25 0"/>
<feBlend mode="normal" in2="BackgroundImageFix" result="effect1_dropShadow_4_99"/>
<feColorMatrix in="SourceAlpha" type="matrix" values="0 0 0 0 0 0 0 0 0 0 0 0 0 0 0 0 0 0 127 0" result="hardAlpha"/>
<feOffset dx="1" dy="1"/>
<feGaussianBlur stdDeviation="0.05"/>
<feComposite in2="hardAlpha" operator="out"/>
<feColorMatrix type="matrix" values="0 0 0 0 0.239216 0 0 0 0 0.47451 0 0 0 0 0.8 0 0 0 1 0"/>
<feBlend mode="normal" in2="effect1_dropShadow_4_99" result="effect2_dropShadow_4_99"/>
<feBlend mode="normal" in="SourceGraphic" in2="effect2_dropShadow_4_99" result="shape"/>
</filter>
<filter id="filter1_i_4_99" x="8.18091" y="9.92676" width="18.3943" height="14.9771" filterUnits="userSpaceOnUse" color-interpolation-filters="sRGB">
<feFlood flood-opacity="0" result="BackgroundImageFix"/>
<feBlend mode="normal" in="SourceGraphic" in2="BackgroundImageFix" result="shape"/>
<feColorMatrix in="SourceAlpha" type="matrix" values="0 0 0 0 0 0 0 0 0 0 0 0 0 0 0 0 0 0 127 0" result="hardAlpha"/>
<feOffset dy="1"/>
<feGaussianBlur stdDeviation="2"/>
<feComposite in2="hardAlpha" operator="arithmetic" k2="-1" k3="1"/>
<feColorMatrix type="matrix" values="0 0 0 0 0 0 0 0 0 0 0 0 0 0 0 0 0 0 0.25 0"/>
<feBlend mode="normal" in2="shape" result="effect1_innerShadow_4_99"/>
</filter>
<filter id="filter2_i_4_99" x="10.282" y="12.0996" width="0.871704" height="0.871704" filterUnits="userSpaceOnUse" color-interpolation-filters="sRGB">
<feFlood flood-opacity="0" result="BackgroundImageFix"/>
<feBlend mode="normal" in="SourceGraphic" in2="BackgroundImageFix" result="shape"/>
<feColorMatrix in="SourceAlpha" type="matrix" values="0 0 0 0 0 0 0 0 0 0 0 0 0 0 0 0 0 0 127 0" result="hardAlpha"/>
<feOffset dy="20"/>
<feGaussianBlur stdDeviation="2"/>
<feComposite in2="hardAlpha" operator="arithmetic" k2="-1" k3="1"/>
<feColorMatrix type="matrix" values="0 0 0 0 0 0 0 0 0 0 0 0 0 0 0 0 0 0 0.25 0"/>
<feBlend mode="normal" in2="shape" result="effect1_innerShadow_4_99"/>
</filter>
<clipPath id="clip0_4_99">
<rect width="32" height="32" rx="16" fill="white"/>
</clipPath>
</defs>
</svg>
