<svg width="32" height="32" viewBox="0 0 32 32" fill="none" xmlns="http://www.w3.org/2000/svg">
<g clip-path="url(#clip0_4_99)">
<g filter="url(#filter0_dd_4_99)">
<g filter="url(#filter1_di_4_99)">
<path d="M6.2047 3.8456C6.33 3.62858 6.5294 3.46621 6.75905 3.39419C6.9887 3.32218 7.22978 3.34642 7.42926 3.46159L8.93353 4.33008C9.3096 4.5472 9.37953 4.86033 9.44946 5.17345L9.72917 6.42596C9.7991 6.73908 9.86903 7.05221 10.2451 7.26933L12.5015 8.57207C12.8776 8.78919 13.1837 8.69319 13.4899 8.59719L14.7144 8.21318C15.0205 8.11717 15.3267 8.02117 15.7028 8.2383L31.2478 17.2132C31.4473 17.3284 31.5888 17.5251 31.6413 17.76C31.6938 17.9949 31.6528 18.2487 31.5275 18.4657L26.8033 26.6483C26.678 26.8653 26.4786 27.0277 26.249 27.0997C26.0193 27.1717 25.7783 27.1475 25.5788 27.0323L10.0337 18.0574C9.65765 17.8402 9.35151 17.9362 9.04537 18.0322L7.82082 18.4162C7.51468 18.5122 7.20854 18.6082 6.83247 18.3911L4.57607 17.0884C4.2 16.8713 4.13007 16.5581 4.06014 16.245L3.78042 14.9925C3.71049 14.6794 3.64056 14.3663 3.2645 14.1491L1.76022 13.2806C1.56075 13.1655 1.41921 12.9688 1.36675 12.7339C1.3143 12.499 1.35521 12.2452 1.48051 12.0281L6.2047 3.8456Z" fill="#4C97FF" fill-opacity="0.8" shape-rendering="crispEdges"/>
<path d="M6.2047 3.8456C6.33 3.62858 6.5294 3.46621 6.75905 3.39419C6.9887 3.32218 7.22978 3.34642 7.42926 3.46159L8.93353 4.33008C9.3096 4.5472 9.37953 4.86033 9.44946 5.17345L9.72917 6.42596C9.7991 6.73908 9.86903 7.05221 10.2451 7.26933L12.5015 8.57207C12.8776 8.78919 13.1837 8.69319 13.4899 8.59719L14.7144 8.21318C15.0205 8.11717 15.3267 8.02117 15.7028 8.2383L31.2478 17.2132C31.4473 17.3284 31.5888 17.5251 31.6413 17.76C31.6938 17.9949 31.6528 18.2487 31.5275 18.4657L26.8033 26.6483C26.678 26.8653 26.4786 27.0277 26.249 27.0997C26.0193 27.1717 25.7783 27.1475 25.5788 27.0323L10.0337 18.0574C9.65765 17.8402 9.35151 17.9362 9.04537 18.0322L7.82082 18.4162C7.51468 18.5122 7.20854 18.6082 6.83247 18.3911L4.57607 17.0884C4.2 16.8713 4.13007 16.5581 4.06014 16.245L3.78042 14.9925C3.71049 14.6794 3.64056 14.3663 3.2645 14.1491L1.76022 13.2806C1.56075 13.1655 1.41921 12.9688 1.36675 12.7339C1.3143 12.499 1.35521 12.2452 1.48051 12.0281L6.2047 3.8456Z" stroke="white" stroke-opacity="0.2" stroke-width="2" shape-rendering="crispEdges"/>
</g>
<g filter="url(#filter2_di_4_99)">
<path d="M6.2047 3.8456C6.33 3.62858 6.5294 3.46621 6.75905 3.39419C6.9887 3.32218 7.22978 3.34642 7.42926 3.46159L8.93353 4.33008C9.3096 4.5472 9.37953 4.86033 9.44946 5.17345L9.72917 6.42596C9.7991 6.73908 9.86903 7.05221 10.2451 7.26933L12.5015 8.57207C12.8776 8.78919 13.1837 8.69319 13.4899 8.59719L14.7144 8.21318C15.0205 8.11717 15.3267 8.02117 15.7028 8.2383L31.2478 17.2132C31.4473 17.3284 31.5888 17.5251 31.6413 17.76C31.6938 17.9949 31.6528 18.2487 31.5275 18.4657L26.8033 26.6483C26.678 26.8653 26.4786 27.0277 26.249 27.0997C26.0193 27.1717 25.7783 27.1475 25.5788 27.0323L10.0337 18.0574C9.65765 17.8402 9.35151 17.9362 9.04537 18.0322L7.82082 18.4162C7.51468 18.5122 7.20854 18.6082 6.83247 18.3911L4.57607 17.0884C4.2 16.8713 4.13007 16.5581 4.06014 16.245L3.78042 14.9925C3.71049 14.6794 3.64056 14.3663 3.2645 14.1491L1.76022 13.2806C1.56075 13.1655 1.41921 12.9688 1.36675 12.7339C1.3143 12.499 1.35521 12.2452 1.48051 12.0281L6.2047 3.8456Z" fill="#4C97FF" fill-opacity="0.8" shape-rendering="crispEdges"/>
<path d="M6.2047 3.8456C6.33 3.62858 6.5294 3.46621 6.75905 3.39419C6.9887 3.32218 7.22978 3.34642 7.42926 3.46159L8.93353 4.33008C9.3096 4.5472 9.37953 4.86033 9.44946 5.17345L9.72917 6.42596C9.7991 6.73908 9.86903 7.05221 10.2451 7.26933L12.5015 8.57207C12.8776 8.78919 13.1837 8.69319 13.4899 8.59719L14.7144 8.21318C15.0205 8.11717 15.3267 8.02117 15.7028 8.2383L31.2478 17.2132C31.4473 17.3284 31.5888 17.5251 31.6413 17.76C31.6938 17.9949 31.6528 18.2487 31.5275 18.4657L26.8033 26.6483C26.678 26.8653 26.4786 27.0277 26.249 27.0997C26.0193 27.1717 25.7783 27.1475 25.5788 27.0323L10.0337 18.0574C9.65765 17.8402 9.35151 17.9362 9.04537 18.0322L7.82082 18.4162C7.51468 18.5122 7.20854 18.6082 6.83247 18.3911L4.57607 17.0884C4.2 16.8713 4.13007 16.5581 4.06014 16.245L3.78042 14.9925C3.71049 14.6794 3.64056 14.3663 3.2645 14.1491L1.76022 13.2806C1.56075 13.1655 1.41921 12.9688 1.36675 12.7339C1.3143 12.499 1.35521 12.2452 1.48051 12.0281L6.2047 3.8456Z" stroke="#3D79CC" stroke-opacity="0.8" stroke-width="0.0316453" shape-rendering="crispEdges"/>
</g>
<g filter="url(#filter3_dd_4_99)">
<path d="M6.14135 3.8456C6.26664 3.62858 6.46605 3.46621 6.6957 3.39419C6.92535 3.32218 7.16643 3.34642 7.36591 3.46159L8.87018 4.33008C9.24625 4.5472 9.31617 4.86033 9.3861 5.17345L9.66582 6.42596C9.73575 6.73908 9.80568 7.05221 10.1817 7.26933L12.4382 8.57207C12.8142 8.78919 13.1204 8.69319 13.4265 8.59719L14.6511 8.21318C14.9572 8.11717 15.2633 8.02117 15.6394 8.2383L31.1845 17.2132C31.3839 17.3284 31.5255 17.5251 31.5779 17.76C31.6304 17.9949 31.5895 18.2487 31.4642 18.4657L26.74 26.6483C26.6147 26.8653 26.4153 27.0277 26.1856 27.0997C25.956 27.1717 25.7149 27.1475 25.5154 27.0323L9.97037 18.0574C9.5943 17.8402 9.28816 17.9362 8.98202 18.0322L7.75746 18.4162C7.45133 18.5122 7.14519 18.6082 6.76912 18.3911L4.51271 17.0884C4.13664 16.8713 4.06671 16.5581 3.99678 16.245L3.71707 14.9925C3.64714 14.6794 3.57721 14.3663 3.20114 14.1491L1.69687 13.2806C1.49739 13.1655 1.35585 12.9688 1.3034 12.7339C1.25094 12.499 1.29186 12.2452 1.41715 12.0281L6.14135 3.8456Z" fill="url(#paint0_linear_4_99)" fill-opacity="0.8" stroke="#3D79CC" stroke-opacity="0.8" stroke-width="0.0316453"/>
</g>
</g>
<g filter="url(#filter4_d_4_99)">
<path d="M12.7509 19.5934L12.7476 19.5915C11.6486 18.9684 10.8128 18.4943 9.96991 17.8552C9.14935 17.233 8.31965 16.4518 7.23733 15.2223C9.54551 13.8356 10.7629 12.6011 11.3804 11.5116C11.974 10.4639 12.0057 9.56159 11.9359 8.81019C12.1279 8.82746 12.4316 8.87477 12.8124 8.95197C13.2957 9.04992 13.8936 9.1929 14.5258 9.37326C15.7939 9.73506 17.1855 10.2431 18.0678 10.8303C21.6335 13.2036 24.328 16.1412 25.1001 18.7383L25.13 18.8371L25.2374 18.815L30.7534 17.6802C31.06 17.6708 31.3343 17.8299 31.4824 18.0397C31.6321 18.252 31.6342 18.4784 31.4714 18.6285L28.0244 21.8038L28.0022 21.8237L27.993 21.8521L26.5625 26.1696C26.4949 26.374 26.2788 26.4764 26.0078 26.4501C25.7408 26.4242 25.4628 26.2725 25.3301 26.0154L23.7864 21.2912L23.7555 21.1974L23.652 21.2172C20.8089 21.7786 16.4708 21.7026 12.7509 19.5934ZM7.10082 15.0407C6.23874 13.6596 5.66585 12.2882 5.36037 11.1763C5.20408 10.6074 5.11814 10.1091 5.09778 9.7142C5.08759 9.51666 5.09398 9.34684 5.11514 9.20861C5.1365 9.0692 5.17252 8.96854 5.21498 8.90329C5.24841 8.8521 5.31374 8.79786 5.42417 8.74625C5.53385 8.69504 5.67935 8.65063 5.86045 8.61377C6.22314 8.53998 6.71164 8.50025 7.30192 8.49321C8.46077 8.4794 9.99305 8.59093 11.6957 8.79161C11.7684 9.52721 11.747 10.3955 11.1719 11.4102C10.5806 12.4535 9.39711 13.663 7.10082 15.0407Z" fill="url(#paint1_linear_4_99)"/>
<path d="M12.7509 19.5934L12.7476 19.5915C11.6486 18.9684 10.8128 18.4943 9.96991 17.8552C9.14935 17.233 8.31965 16.4518 7.23733 15.2223C9.54551 13.8356 10.7629 12.6011 11.3804 11.5116C11.974 10.4639 12.0057 9.56159 11.9359 8.81019C12.1279 8.82746 12.4316 8.87477 12.8124 8.95197C13.2957 9.04992 13.8936 9.1929 14.5258 9.37326C15.7939 9.73506 17.1855 10.2431 18.0678 10.8303C21.6335 13.2036 24.328 16.1412 25.1001 18.7383L25.13 18.8371L25.2374 18.815L30.7534 17.6802C31.06 17.6708 31.3343 17.8299 31.4824 18.0397C31.6321 18.252 31.6342 18.4784 31.4714 18.6285L28.0244 21.8038L28.0022 21.8237L27.993 21.8521L26.5625 26.1696C26.4949 26.374 26.2788 26.4764 26.0078 26.4501C25.7408 26.4242 25.4628 26.2725 25.3301 26.0154L23.7864 21.2912L23.7555 21.1974L23.652 21.2172C20.8089 21.7786 16.4708 21.7026 12.7509 19.5934ZM7.10082 15.0407C6.23874 13.6596 5.66585 12.2882 5.36037 11.1763C5.20408 10.6074 5.11814 10.1091 5.09778 9.7142C5.08759 9.51666 5.09398 9.34684 5.11514 9.20861C5.1365 9.0692 5.17252 8.96854 5.21498 8.90329C5.24841 8.8521 5.31374 8.79786 5.42417 8.74625C5.53385 8.69504 5.67935 8.65063 5.86045 8.61377C6.22314 8.53998 6.71164 8.50025 7.30192 8.49321C8.46077 8.4794 9.99305 8.59093 11.6957 8.79161C11.7684 9.52721 11.747 10.3955 11.1719 11.4102C10.5806 12.4535 9.39711 13.663 7.10082 15.0407Z" fill="url(#paint2_linear_4_99)"/>
<path d="M12.7509 19.5934L12.7476 19.5915C11.6486 18.9684 10.8128 18.4943 9.96991 17.8552C9.14935 17.233 8.31965 16.4518 7.23733 15.2223C9.54551 13.8356 10.7629 12.6011 11.3804 11.5116C11.974 10.4639 12.0057 9.56159 11.9359 8.81019C12.1279 8.82746 12.4316 8.87477 12.8124 8.95197C13.2957 9.04992 13.8936 9.1929 14.5258 9.37326C15.7939 9.73506 17.1855 10.2431 18.0678 10.8303C21.6335 13.2036 24.328 16.1412 25.1001 18.7383L25.13 18.8371L25.2374 18.815L30.7534 17.6802C31.06 17.6708 31.3343 17.8299 31.4824 18.0397C31.6321 18.252 31.6342 18.4784 31.4714 18.6285L28.0244 21.8038L28.0022 21.8237L27.993 21.8521L26.5625 26.1696C26.4949 26.374 26.2788 26.4764 26.0078 26.4501C25.7408 26.4242 25.4628 26.2725 25.3301 26.0154L23.7864 21.2912L23.7555 21.1974L23.652 21.2172C20.8089 21.7786 16.4708 21.7026 12.7509 19.5934ZM7.10082 15.0407C6.23874 13.6596 5.66585 12.2882 5.36037 11.1763C5.20408 10.6074 5.11814 10.1091 5.09778 9.7142C5.08759 9.51666 5.09398 9.34684 5.11514 9.20861C5.1365 9.0692 5.17252 8.96854 5.21498 8.90329C5.24841 8.8521 5.31374 8.79786 5.42417 8.74625C5.53385 8.69504 5.67935 8.65063 5.86045 8.61377C6.22314 8.53998 6.71164 8.50025 7.30192 8.49321C8.46077 8.4794 9.99305 8.59093 11.6957 8.79161C11.7684 9.52721 11.747 10.3955 11.1719 11.4102C10.5806 12.4535 9.39711 13.663 7.10082 15.0407Z" stroke="black" stroke-width="0.231687"/>
<g filter="url(#filter5_i_4_99)">
<ellipse cx="8.73717" cy="10.7073" rx="0.729944" ry="0.730858" transform="rotate(-60 8.73717 10.7073)" fill="black"/>
<ellipse cx="8.73717" cy="10.7073" rx="0.729944" ry="0.730858" transform="rotate(-60 8.73717 10.7073)" fill="url(#paint3_linear_4_99)"/>
</g>
</g>
</g>
<defs>
<filter id="filter0_dd_4_99" x="-0.605" y="1.40416" width="35.1674" height="28.6349" filterUnits="userSpaceOnUse" color-interpolation-filters="sRGB">
<feFlood flood-opacity="0" result="BackgroundImageFix"/>
<feColorMatrix in="SourceAlpha" type="matrix" values="0 0 0 0 0 0 0 0 0 0 0 0 0 0 0 0 0 0 127 0" result="hardAlpha"/>
<feOffset dx="0.94936" dy="0.94936"/>
<feGaussianBlur stdDeviation="0.47468"/>
<feComposite in2="hardAlpha" operator="out"/>
<feColorMatrix type="matrix" values="0 0 0 0 0 0 0 0 0 0 0 0 0 0 0 0 0 0 0.25 0"/>
<feBlend mode="normal" in2="BackgroundImageFix" result="effect1_dropShadow_4_99"/>
<feColorMatrix in="SourceAlpha" type="matrix" values="0 0 0 0 0 0 0 0 0 0 0 0 0 0 0 0 0 0 127 0" result="hardAlpha"/>
<feOffset dx="0.0316453" dy="0.0316453"/>
<feGaussianBlur stdDeviation="0.00158227"/>
<feComposite in2="hardAlpha" operator="out"/>
<feColorMatrix type="matrix" values="0 0 0 0 0.239216 0 0 0 0 0.47451 0 0 0 0 0.8 0 0 0 1 0"/>
<feBlend mode="normal" in2="effect1_dropShadow_4_99" result="effect2_dropShadow_4_99"/>
<feBlend mode="normal" in="SourceGraphic" in2="effect2_dropShadow_4_99" result="shape"/>
</filter>
<filter id="filter1_di_4_99" x="0.217779" y="2.29022" width="32.5725" height="26.1033" filterUnits="userSpaceOnUse" color-interpolation-filters="sRGB">
<feFlood flood-opacity="0" result="BackgroundImageFix"/>
<feColorMatrix in="SourceAlpha" type="matrix" values="0 0 0 0 0 0 0 0 0 0 0 0 0 0 0 0 0 0 127 0" result="hardAlpha"/>
<feOffset dy="0.126581"/>
<feGaussianBlur stdDeviation="0.0632907"/>
<feComposite in2="hardAlpha" operator="out"/>
<feColorMatrix type="matrix" values="0 0 0 0 0 0 0 0 0 0 0 0 0 0 0 0 0 0 0.25 0"/>
<feBlend mode="normal" in2="BackgroundImageFix" result="effect1_dropShadow_4_99"/>
<feBlend mode="normal" in="SourceGraphic" in2="effect1_dropShadow_4_99" result="shape"/>
<feColorMatrix in="SourceAlpha" type="matrix" values="0 0 0 0 0 0 0 0 0 0 0 0 0 0 0 0 0 0 127 0" result="hardAlpha"/>
<feOffset dx="-0.316453" dy="-0.316453"/>
<feGaussianBlur stdDeviation="0.0316453"/>
<feComposite in2="hardAlpha" operator="arithmetic" k2="-1" k3="1"/>
<feColorMatrix type="matrix" values="0 0 0 0 0 0 0 0 0 0 0 0 0 0 0 0 0 0 0.4 0"/>
<feBlend mode="normal" in2="shape" result="effect2_innerShadow_4_99"/>
</filter>
<filter id="filter2_di_4_99" x="1.20203" y="3.27436" width="30.604" height="24.1351" filterUnits="userSpaceOnUse" color-interpolation-filters="sRGB">
<feFlood flood-opacity="0" result="BackgroundImageFix"/>
<feColorMatrix in="SourceAlpha" type="matrix" values="0 0 0 0 0 0 0 0 0 0 0 0 0 0 0 0 0 0 127 0" result="hardAlpha"/>
<feOffset dy="0.126581"/>
<feGaussianBlur stdDeviation="0.0632907"/>
<feComposite in2="hardAlpha" operator="out"/>
<feColorMatrix type="matrix" values="0 0 0 0 0 0 0 0 0 0 0 0 0 0 0 0 0 0 0.25 0"/>
<feBlend mode="normal" in2="BackgroundImageFix" result="effect1_dropShadow_4_99"/>
<feBlend mode="normal" in="SourceGraphic" in2="effect1_dropShadow_4_99" result="shape"/>
<feColorMatrix in="SourceAlpha" type="matrix" values="0 0 0 0 0 0 0 0 0 0 0 0 0 0 0 0 0 0 127 0" result="hardAlpha"/>
<feOffset dx="-0.316453" dy="-0.316453"/>
<feGaussianBlur stdDeviation="0.0316453"/>
<feComposite in2="hardAlpha" operator="arithmetic" k2="-1" k3="1"/>
<feColorMatrix type="matrix" values="0 0 0 0 0 0 0 0 0 0 0 0 0 0 0 0 0 0 0.4 0"/>
<feBlend mode="normal" in2="shape" result="effect2_innerShadow_4_99"/>
</filter>
<filter id="filter3_dd_4_99" x="0.315899" y="2.38829" width="33.1989" height="26.6667" filterUnits="userSpaceOnUse" color-interpolation-filters="sRGB">
<feFlood flood-opacity="0" result="BackgroundImageFix"/>
<feColorMatrix in="SourceAlpha" type="matrix" values="0 0 0 0 0 0 0 0 0 0 0 0 0 0 0 0 0 0 127 0" result="hardAlpha"/>
<feOffset dx="0.94936" dy="0.94936"/>
<feGaussianBlur stdDeviation="0.47468"/>
<feComposite in2="hardAlpha" operator="out"/>
<feColorMatrix type="matrix" values="0 0 0 0 0 0 0 0 0 0 0 0 0 0 0 0 0 0 0.25 0"/>
<feBlend mode="normal" in2="BackgroundImageFix" result="effect1_dropShadow_4_99"/>
<feColorMatrix in="SourceAlpha" type="matrix" values="0 0 0 0 0 0 0 0 0 0 0 0 0 0 0 0 0 0 127 0" result="hardAlpha"/>
<feOffset dx="0.0316453" dy="0.0316453"/>
<feGaussianBlur stdDeviation="0.00158227"/>
<feComposite in2="hardAlpha" operator="out"/>
<feColorMatrix type="matrix" values="0 0 0 0 0.239216 0 0 0 0 0.47451 0 0 0 0 0.8 0 0 0 1 0"/>
<feBlend mode="normal" in2="effect1_dropShadow_4_99" result="effect2_dropShadow_4_99"/>
<feBlend mode="normal" in="SourceGraphic" in2="effect2_dropShadow_4_99" result="shape"/>
</filter>
<filter id="filter4_d_4_99" x="4.81991" y="8.37964" width="27.0476" height="18.4964" filterUnits="userSpaceOnUse" color-interpolation-filters="sRGB">
<feFlood flood-opacity="0" result="BackgroundImageFix"/>
<feColorMatrix in="SourceAlpha" type="matrix" values="0 0 0 0 0 0 0 0 0 0 0 0 0 0 0 0 0 0 127 0" result="hardAlpha"/>
<feOffset dy="0.154458"/>
<feGaussianBlur stdDeviation="0.0772292"/>
<feComposite in2="hardAlpha" operator="out"/>
<feColorMatrix type="matrix" values="0 0 0 0 0 0 0 0 0 0 0 0 0 0 0 0 0 0 0.25 0"/>
<feBlend mode="normal" in2="BackgroundImageFix" result="effect1_dropShadow_4_99"/>
<feBlend mode="normal" in="SourceGraphic" in2="effect1_dropShadow_4_99" result="shape"/>
</filter>
<filter id="filter5_i_4_99" x="8.00647" y="9.97693" width="1.46143" height="1.61515" filterUnits="userSpaceOnUse" color-interpolation-filters="sRGB">
<feFlood flood-opacity="0" result="BackgroundImageFix"/>
<feBlend mode="normal" in="SourceGraphic" in2="BackgroundImageFix" result="shape"/>
<feColorMatrix in="SourceAlpha" type="matrix" values="0 0 0 0 0 0 0 0 0 0 0 0 0 0 0 0 0 0 127 0" result="hardAlpha"/>
<feOffset dy="0.772292"/>
<feGaussianBlur stdDeviation="0.0772292"/>
<feComposite in2="hardAlpha" operator="arithmetic" k2="-1" k3="1"/>
<feColorMatrix type="matrix" values="0 0 0 0 0 0 0 0 0 0 0 0 0 0 0 0 0 0 0.25 0"/>
<feBlend mode="normal" in2="shape" result="effect1_innerShadow_4_99"/>
</filter>
<linearGradient id="paint0_linear_4_99" x1="10.1752" y1="22.0462" x2="24.3523" y2="2.06216" gradientUnits="userSpaceOnUse">
<stop stop-color="white" stop-opacity="0"/>
<stop offset="1" stop-color="white" stop-opacity="0.2"/>
</linearGradient>
<linearGradient id="paint1_linear_4_99" x1="6.43185" y1="6.54565" x2="12.1178" y2="28.7776" gradientUnits="userSpaceOnUse">
<stop stop-color="#FF9090"/>
<stop offset="1" stop-color="#FF6B6B"/>
</linearGradient>
<linearGradient id="paint2_linear_4_99" x1="15.4957" y1="5.00405" x2="8.16099" y2="19.7709" gradientUnits="userSpaceOnUse">
<stop stop-color="white" stop-opacity="0.6"/>
<stop offset="0.5" stop-color="white" stop-opacity="0"/>
</linearGradient>
<linearGradient id="paint3_linear_4_99" x1="9.46712" y1="10.7073" x2="9.01248" y2="10.7055" gradientUnits="userSpaceOnUse">
<stop stop-color="white" stop-opacity="0.3"/>
<stop offset="1" stop-color="white" stop-opacity="0"/>
</linearGradient>
<clipPath id="clip0_4_99">
<rect width="32" height="32" rx="16" fill="white"/>
</clipPath>
</defs>
</svg>
