<svg width="1024" height="1024" viewBox="0 0 1024 1024" fill="none" xmlns="http://www.w3.org/2000/svg">
<g clip-path="url(#clip0_14_10)">
<rect width="1024" height="1024" rx="256" fill="url(#paint0_linear_14_10)"/>
<g filter="url(#filter0_d_14_10)">
<path d="M671.767 521.55L608.187 166.447L830.116 127.91L838.664 175.651L671.909 204.607L692.001 316.823L844.716 290.304L853.043 336.815L700.328 363.333L726.941 511.969L671.767 521.55Z" fill="black"/>
</g>
<g filter="url(#filter1_d_14_10)">
<path d="M305.011 908.743C278.409 913.362 254.372 913.392 232.899 908.832C211.59 904.243 193.77 895.497 179.438 882.592C165.077 869.523 155.292 852.7 150.083 832.121L149.176 828.472L203.119 819.105L204.184 822.219C207.765 832.762 213.97 841.411 222.799 848.166C231.762 854.729 242.702 859.089 255.617 861.244C268.532 863.4 282.872 863.109 298.636 860.371C314.564 857.605 327.879 853.009 338.581 846.584C349.282 840.158 357.019 832.302 361.79 823.016C366.725 813.701 368.209 803.548 366.241 792.556L366.197 792.31C363.641 778.037 356.442 767.615 344.599 761.044C332.89 754.281 314.758 750.41 290.201 749.43L250.076 748.024C213.941 746.687 185.881 739.38 165.896 726.104C145.88 712.664 133.523 692.819 128.823 666.57L128.779 666.324C125.33 646.116 127.741 627.428 136.011 610.26C144.252 592.928 157.297 578.315 175.146 566.419C192.966 554.359 214.438 546.148 239.562 541.785C264.194 537.508 286.7 537.913 307.082 543.001C327.465 548.089 344.508 557.224 358.212 570.407C371.887 583.426 381.174 599.828 386.071 619.615L387.022 623.51L333.079 632.877L332.014 629.763C328.539 618.864 322.73 610.062 314.587 603.356C306.609 596.622 296.916 592.131 285.508 589.883C274.07 587.471 261.291 587.491 247.169 589.943C232.554 592.481 220.225 596.906 210.18 603.217C200.106 609.365 192.803 616.807 188.272 625.544C183.741 634.281 182.416 643.9 184.296 654.4L184.34 654.646C186.719 667.934 193.912 677.85 205.92 684.392C217.927 690.934 235.441 694.659 258.461 695.567L298.631 697.219C324.008 698.056 345.194 701.482 362.186 707.496C379.179 713.511 392.53 722.357 402.24 734.035C411.95 745.712 418.45 760.738 421.74 779.112L421.784 779.358C425.661 801.014 423.523 820.754 415.371 838.578C407.353 856.209 393.941 871.141 375.136 883.372C356.466 895.41 333.091 903.867 305.011 908.743Z" fill="black"/>
</g>
<g filter="url(#filter2_dd_14_10)">
<g filter="url(#filter3_di_14_10)">
<path d="M194.071 125.857C198.031 118.999 204.332 113.868 211.589 111.593C218.846 109.317 226.464 110.083 232.768 113.722L280.303 141.167C292.187 148.028 294.397 157.923 296.606 167.818L305.445 207.397C307.655 217.292 309.865 227.187 321.749 234.048L393.052 275.215C404.936 282.076 414.61 279.042 424.284 276.008L462.98 263.874C472.654 260.84 482.328 257.806 494.212 264.667L985.44 548.278C991.743 551.917 996.216 558.132 997.874 565.554C999.531 572.977 998.238 580.999 994.279 587.857L844.993 846.427C841.034 853.285 834.733 858.416 827.476 860.692C820.219 862.968 812.6 862.202 806.297 858.562L315.069 574.952C303.185 568.091 293.511 571.124 283.837 574.158L245.141 586.293C235.467 589.326 225.793 592.36 213.909 585.499L142.606 544.332C130.722 537.471 128.512 527.576 126.303 517.681L117.464 478.102C115.254 468.207 113.044 458.312 101.16 451.451L53.6248 424.007C47.3212 420.367 42.8487 414.153 41.191 406.73C39.5334 399.308 40.8264 391.285 44.7857 384.427L194.071 125.857Z" fill="#4C97FF" fill-opacity="0.8" shape-rendering="crispEdges"/>
<path d="M194.071 125.857C198.031 118.999 204.332 113.868 211.589 111.593C218.846 109.317 226.464 110.083 232.768 113.722L280.303 141.167C292.187 148.028 294.397 157.923 296.606 167.818L305.445 207.397C307.655 217.292 309.865 227.187 321.749 234.048L393.052 275.215C404.936 282.076 414.61 279.042 424.284 276.008L462.98 263.874C472.654 260.84 482.328 257.806 494.212 264.667L985.44 548.278C991.743 551.917 996.216 558.132 997.874 565.554C999.531 572.977 998.238 580.999 994.279 587.857L844.993 846.427C841.034 853.285 834.733 858.416 827.476 860.692C820.219 862.968 812.6 862.202 806.297 858.562L315.069 574.952C303.185 568.091 293.511 571.124 283.837 574.158L245.141 586.293C235.467 589.326 225.793 592.36 213.909 585.499L142.606 544.332C130.722 537.471 128.512 527.576 126.303 517.681L117.464 478.102C115.254 468.207 113.044 458.312 101.16 451.451L53.6248 424.007C47.3212 420.367 42.8487 414.153 41.191 406.73C39.5334 399.308 40.8264 391.285 44.7857 384.427L194.071 125.857Z" stroke="#3D79CC" stroke-opacity="0.8" shape-rendering="crispEdges"/>
</g>
<g filter="url(#filter4_dd_14_10)">
<path d="M192.071 125.857C196.031 118.999 202.332 113.868 209.589 111.593C216.846 109.317 224.464 110.083 230.768 113.722L278.303 141.167C290.187 148.028 292.397 157.923 294.606 167.818L303.445 207.397C305.655 217.292 307.865 227.187 319.749 234.048L391.052 275.215C402.936 282.076 412.61 279.042 422.284 276.008L460.98 263.874C470.654 260.84 480.328 257.806 492.212 264.667L983.44 548.278C989.743 551.917 994.216 558.132 995.874 565.554C997.531 572.977 996.238 580.999 992.279 587.857L842.993 846.427C839.034 853.285 832.733 858.416 825.476 860.692C818.219 862.968 810.6 862.202 804.297 858.562L313.069 574.952C301.185 568.091 291.511 571.124 281.837 574.158L243.141 586.293C233.467 589.326 223.793 592.36 211.909 585.499L140.606 544.332C128.722 537.471 126.512 527.576 124.303 517.681L115.464 478.102C113.254 468.207 111.044 458.312 99.1602 451.451L51.6248 424.007C45.3212 420.367 40.8487 414.153 39.191 406.73C37.5334 399.308 38.8264 391.285 42.7857 384.427L192.071 125.857Z" fill="url(#paint1_linear_14_10)" fill-opacity="0.8" stroke="#3D79CC" stroke-opacity="0.8"/>
</g>
</g>
<g filter="url(#filter5_d_14_10)">
<path d="M410.424 583.835L410.323 583.777C381.862 567.64 360.217 555.362 338.387 538.809C316.616 522.299 294.591 501.479 265.541 468.268C242.395 431.717 227.117 395.273 219.034 365.854C214.985 351.116 212.759 338.207 212.232 327.977C211.968 322.862 212.132 318.474 212.679 314.895C213.233 311.28 214.15 308.675 215.25 306.984C216.115 305.656 217.804 304.252 220.67 302.913C223.512 301.585 227.285 300.427 231.982 299.471C241.375 297.56 254.022 296.547 269.31 296.364C299.855 296 340.422 298.958 385.459 304.333L385.648 304.355L385.84 304.355C390.047 304.357 399.382 305.67 412.005 308.229C424.521 310.765 440.012 314.473 456.387 319.145C489.228 328.515 525.273 341.668 548.122 356.875C640.463 418.337 710.243 494.417 730.237 561.675L730.997 564.234L733.775 563.663L876.74 534.239C884.633 534.037 891.679 538.172 895.497 543.58C899.26 548.908 899.433 554.581 895.6 558.467L895.216 558.837L805.955 641.051L805.374 641.585L805.134 642.313L768.106 754.129L768.106 754.13L767.931 754.619C766.003 759.585 760.528 762.058 753.727 761.399C746.809 760.728 739.613 756.781 736.179 750.119L696.203 627.8L695.401 625.348L692.711 625.879C619.084 640.417 506.757 638.455 410.424 583.835Z" fill="url(#paint2_linear_14_10)"/>
<path d="M410.424 583.835L410.323 583.777C381.862 567.64 360.217 555.362 338.387 538.809C316.616 522.299 294.591 501.479 265.541 468.268C242.395 431.717 227.117 395.273 219.034 365.854C214.985 351.116 212.759 338.207 212.232 327.977C211.968 322.862 212.132 318.474 212.679 314.895C213.233 311.28 214.15 308.675 215.25 306.984C216.115 305.656 217.804 304.252 220.67 302.913C223.512 301.585 227.285 300.427 231.982 299.471C241.375 297.56 254.022 296.547 269.31 296.364C299.855 296 340.422 298.958 385.459 304.333L385.648 304.355L385.84 304.355C390.047 304.357 399.382 305.67 412.005 308.229C424.521 310.765 440.012 314.473 456.387 319.145C489.228 328.515 525.273 341.668 548.122 356.875C640.463 418.337 710.243 494.417 730.237 561.675L730.997 564.234L733.775 563.663L876.74 534.239C884.633 534.037 891.679 538.172 895.497 543.58C899.26 548.908 899.433 554.581 895.6 558.467L895.216 558.837L805.955 641.051L805.374 641.585L805.134 642.313L768.106 754.129L768.106 754.13L767.931 754.619C766.003 759.585 760.528 762.058 753.727 761.399C746.809 760.728 739.613 756.781 736.179 750.119L696.203 627.8L695.401 625.348L692.711 625.879C619.084 640.417 506.757 638.455 410.424 583.835Z" fill="url(#paint3_linear_14_10)"/>
<path d="M410.424 583.835L410.323 583.777C381.862 567.64 360.217 555.362 338.387 538.809C316.616 522.299 294.591 501.479 265.541 468.268C242.395 431.717 227.117 395.273 219.034 365.854C214.985 351.116 212.759 338.207 212.232 327.977C211.968 322.862 212.132 318.474 212.679 314.895C213.233 311.28 214.15 308.675 215.25 306.984C216.115 305.656 217.804 304.252 220.67 302.913C223.512 301.585 227.285 300.427 231.982 299.471C241.375 297.56 254.022 296.547 269.31 296.364C299.855 296 340.422 298.958 385.459 304.333L385.648 304.355L385.84 304.355C390.047 304.357 399.382 305.67 412.005 308.229C424.521 310.765 440.012 314.473 456.387 319.145C489.228 328.515 525.273 341.668 548.122 356.875C640.463 418.337 710.243 494.417 730.237 561.675L730.997 564.234L733.775 563.663L876.74 534.239C884.633 534.037 891.679 538.172 895.497 543.58C899.26 548.908 899.433 554.581 895.6 558.467L895.216 558.837L805.955 641.051L805.374 641.585L805.134 642.313L768.106 754.129L768.106 754.13L767.931 754.619C766.003 759.585 760.528 762.058 753.727 761.399C746.809 760.728 739.613 756.781 736.179 750.119L696.203 627.8L695.401 625.348L692.711 625.879C619.084 640.417 506.757 638.455 410.424 583.835Z" stroke="black" stroke-width="6"/>
<g filter="url(#filter6_i_14_10)">
<ellipse cx="306.476" cy="353.698" rx="18.9033" ry="18.927" transform="rotate(-60 306.476 353.698)" fill="black"/>
<ellipse cx="306.476" cy="353.698" rx="18.9033" ry="18.927" transform="rotate(-60 306.476 353.698)" fill="url(#paint4_linear_14_10)"/>
</g>
</g>
</g>
<defs>
<filter id="filter0_d_14_10" x="578.187" y="107.91" width="345.509" height="453.641" filterUnits="userSpaceOnUse" color-interpolation-filters="sRGB">
<feFlood flood-opacity="0" result="BackgroundImageFix"/>
<feColorMatrix in="SourceAlpha" type="matrix" values="0 0 0 0 0 0 0 0 0 0 0 0 0 0 0 0 0 0 127 0" result="hardAlpha"/>
<feOffset dy="10"/>
<feGaussianBlur stdDeviation="15"/>
<feComposite in2="hardAlpha" operator="out"/>
<feColorMatrix type="matrix" values="0 0 0 0 0 0 0 0 0 0 0 0 0 0 0 0 0 0 0.25 0"/>
<feBlend mode="normal" in2="BackgroundImageFix" result="effect1_dropShadow_14_10"/>
<feBlend mode="normal" in="SourceGraphic" in2="effect1_dropShadow_14_10" result="shape"/>
</filter>
<filter id="filter1_d_14_10" x="72.119" y="498.26" width="398.611" height="474.306" filterUnits="userSpaceOnUse" color-interpolation-filters="sRGB">
<feFlood flood-opacity="0" result="BackgroundImageFix"/>
<feColorMatrix in="SourceAlpha" type="matrix" values="0 0 0 0 0 0 0 0 0 0 0 0 0 0 0 0 0 0 127 0" result="hardAlpha"/>
<feOffset dy="10"/>
<feGaussianBlur stdDeviation="15"/>
<feComposite in2="hardAlpha" operator="out"/>
<feColorMatrix type="matrix" values="0 0 0 0 0 0 0 0 0 0 0 0 0 0 0 0 0 0 0.25 0"/>
<feBlend mode="normal" in2="BackgroundImageFix" result="effect1_dropShadow_14_10"/>
<feBlend mode="normal" in="SourceGraphic" in2="effect1_dropShadow_14_10" result="shape"/>
</filter>
<filter id="filter2_dd_14_10" x="7.98613" y="79.8066" width="1051.09" height="842.671" filterUnits="userSpaceOnUse" color-interpolation-filters="sRGB">
<feFlood flood-opacity="0" result="BackgroundImageFix"/>
<feColorMatrix in="SourceAlpha" type="matrix" values="0 0 0 0 0 0 0 0 0 0 0 0 0 0 0 0 0 0 127 0" result="hardAlpha"/>
<feOffset dx="30" dy="30"/>
<feGaussianBlur stdDeviation="15"/>
<feComposite in2="hardAlpha" operator="out"/>
<feColorMatrix type="matrix" values="0 0 0 0 0 0 0 0 0 0 0 0 0 0 0 0 0 0 0.25 0"/>
<feBlend mode="normal" in2="BackgroundImageFix" result="effect1_dropShadow_14_10"/>
<feColorMatrix in="SourceAlpha" type="matrix" values="0 0 0 0 0 0 0 0 0 0 0 0 0 0 0 0 0 0 127 0" result="hardAlpha"/>
<feOffset dx="1" dy="1"/>
<feGaussianBlur stdDeviation="0.05"/>
<feComposite in2="hardAlpha" operator="out"/>
<feColorMatrix type="matrix" values="0 0 0 0 0.239216 0 0 0 0 0.47451 0 0 0 0 0.8 0 0 0 1 0"/>
<feBlend mode="normal" in2="effect1_dropShadow_14_10" result="effect2_dropShadow_14_10"/>
<feBlend mode="normal" in="SourceGraphic" in2="effect2_dropShadow_14_10" result="shape"/>
</filter>
<filter id="filter3_di_14_10" x="35.9861" y="107.807" width="967.092" height="762.671" filterUnits="userSpaceOnUse" color-interpolation-filters="sRGB">
<feFlood flood-opacity="0" result="BackgroundImageFix"/>
<feColorMatrix in="SourceAlpha" type="matrix" values="0 0 0 0 0 0 0 0 0 0 0 0 0 0 0 0 0 0 127 0" result="hardAlpha"/>
<feOffset dy="4"/>
<feGaussianBlur stdDeviation="2"/>
<feComposite in2="hardAlpha" operator="out"/>
<feColorMatrix type="matrix" values="0 0 0 0 0 0 0 0 0 0 0 0 0 0 0 0 0 0 0.25 0"/>
<feBlend mode="normal" in2="BackgroundImageFix" result="effect1_dropShadow_14_10"/>
<feBlend mode="normal" in="SourceGraphic" in2="effect1_dropShadow_14_10" result="shape"/>
<feColorMatrix in="SourceAlpha" type="matrix" values="0 0 0 0 0 0 0 0 0 0 0 0 0 0 0 0 0 0 127 0" result="hardAlpha"/>
<feOffset dx="-10" dy="-10"/>
<feGaussianBlur stdDeviation="1"/>
<feComposite in2="hardAlpha" operator="arithmetic" k2="-1" k3="1"/>
<feColorMatrix type="matrix" values="0 0 0 0 0 0 0 0 0 0 0 0 0 0 0 0 0 0 0.4 0"/>
<feBlend mode="normal" in2="shape" result="effect2_innerShadow_14_10"/>
</filter>
<filter id="filter4_dd_14_10" x="7.98613" y="79.8066" width="1049.09" height="842.671" filterUnits="userSpaceOnUse" color-interpolation-filters="sRGB">
<feFlood flood-opacity="0" result="BackgroundImageFix"/>
<feColorMatrix in="SourceAlpha" type="matrix" values="0 0 0 0 0 0 0 0 0 0 0 0 0 0 0 0 0 0 127 0" result="hardAlpha"/>
<feOffset dx="30" dy="30"/>
<feGaussianBlur stdDeviation="15"/>
<feComposite in2="hardAlpha" operator="out"/>
<feColorMatrix type="matrix" values="0 0 0 0 0 0 0 0 0 0 0 0 0 0 0 0 0 0 0.25 0"/>
<feBlend mode="normal" in2="BackgroundImageFix" result="effect1_dropShadow_14_10"/>
<feColorMatrix in="SourceAlpha" type="matrix" values="0 0 0 0 0 0 0 0 0 0 0 0 0 0 0 0 0 0 127 0" result="hardAlpha"/>
<feOffset dx="1" dy="1"/>
<feGaussianBlur stdDeviation="0.05"/>
<feComposite in2="hardAlpha" operator="out"/>
<feColorMatrix type="matrix" values="0 0 0 0 0.239216 0 0 0 0 0.47451 0 0 0 0 0.8 0 0 0 1 0"/>
<feBlend mode="normal" in2="effect1_dropShadow_14_10" result="effect2_dropShadow_14_10"/>
<feBlend mode="normal" in="SourceGraphic" in2="effect2_dropShadow_14_10" result="shape"/>
</filter>
<filter id="filter5_d_14_10" x="205.028" y="293.417" width="700.45" height="479" filterUnits="userSpaceOnUse" color-interpolation-filters="sRGB">
<feFlood flood-opacity="0" result="BackgroundImageFix"/>
<feColorMatrix in="SourceAlpha" type="matrix" values="0 0 0 0 0 0 0 0 0 0 0 0 0 0 0 0 0 0 127 0" result="hardAlpha"/>
<feOffset dy="4"/>
<feGaussianBlur stdDeviation="2"/>
<feComposite in2="hardAlpha" operator="out"/>
<feColorMatrix type="matrix" values="0 0 0 0 0 0 0 0 0 0 0 0 0 0 0 0 0 0 0.25 0"/>
<feBlend mode="normal" in2="BackgroundImageFix" result="effect1_dropShadow_14_10"/>
<feBlend mode="normal" in="SourceGraphic" in2="effect1_dropShadow_14_10" result="shape"/>
</filter>
<filter id="filter6_i_14_10" x="287.552" y="334.786" width="37.8485" height="41.8248" filterUnits="userSpaceOnUse" color-interpolation-filters="sRGB">
<feFlood flood-opacity="0" result="BackgroundImageFix"/>
<feBlend mode="normal" in="SourceGraphic" in2="BackgroundImageFix" result="shape"/>
<feColorMatrix in="SourceAlpha" type="matrix" values="0 0 0 0 0 0 0 0 0 0 0 0 0 0 0 0 0 0 127 0" result="hardAlpha"/>
<feOffset dy="20"/>
<feGaussianBlur stdDeviation="2"/>
<feComposite in2="hardAlpha" operator="arithmetic" k2="-1" k3="1"/>
<feColorMatrix type="matrix" values="0 0 0 0 0 0 0 0 0 0 0 0 0 0 0 0 0 0 0.25 0"/>
<feBlend mode="normal" in2="shape" result="effect1_innerShadow_14_10"/>
</filter>
<linearGradient id="paint0_linear_14_10" x1="512" y1="0" x2="512" y2="1061" gradientUnits="userSpaceOnUse">
<stop stop-color="#9558FF"/>
<stop offset="1" stop-color="#5A3599"/>
</linearGradient>
<linearGradient id="paint1_linear_14_10" x1="319.541" y1="701" x2="767.541" y2="69.5" gradientUnits="userSpaceOnUse">
<stop stop-color="white" stop-opacity="0"/>
<stop offset="1" stop-color="white" stop-opacity="0.2"/>
</linearGradient>
<linearGradient id="paint2_linear_14_10" x1="246.774" y1="245.923" x2="394.023" y2="821.662" gradientUnits="userSpaceOnUse">
<stop stop-color="#FF9090"/>
<stop offset="1" stop-color="#FF6B6B"/>
</linearGradient>
<linearGradient id="paint3_linear_14_10" x1="481.5" y1="206" x2="291.553" y2="588.417" gradientUnits="userSpaceOnUse">
<stop stop-color="white" stop-opacity="0.6"/>
<stop offset="0.5" stop-color="white" stop-opacity="0"/>
</linearGradient>
<linearGradient id="paint4_linear_14_10" x1="325.379" y1="353.698" x2="313.606" y2="353.651" gradientUnits="userSpaceOnUse">
<stop stop-color="white" stop-opacity="0.3"/>
<stop offset="1" stop-color="white" stop-opacity="0"/>
</linearGradient>
<clipPath id="clip0_14_10">
<rect width="1024" height="1024" rx="256" fill="white"/>
</clipPath>
</defs>
</svg>
