<svg width="192" height="192" viewBox="0 0 192 192" fill="none" xmlns="http://www.w3.org/2000/svg">
<g clip-path="url(#clip0_33_15)">
<rect width="192" height="192" rx="48" fill="url(#paint0_linear_33_15)"/>
<g filter="url(#filter0_d_33_15)">
<path d="M126.352 98.2293L114.431 31.6475L156.043 24.4217L157.645 33.3731L126.379 38.8025L130.146 59.8429L158.78 54.8707L160.342 63.5914L131.708 68.5636L136.698 96.4329L126.352 98.2293Z" fill="black"/>
</g>
<g filter="url(#filter1_d_33_15)">
<path d="M57.6164 170.823C52.6285 171.689 48.1215 171.694 44.0953 170.839C40.1 169.979 36.7587 168.339 34.0714 165.919C31.3787 163.469 29.544 160.315 28.5675 156.456L28.3973 155.772L38.5116 154.016L38.7114 154.599C39.3828 156.576 40.5462 158.198 42.2016 159.465C43.8822 160.695 45.9334 161.512 48.355 161.917C50.7766 162.321 53.4653 162.266 56.421 161.753C59.4076 161.234 61.9041 160.373 63.9107 159.168C65.9172 157.963 67.3678 156.49 68.2624 154.749C69.1878 153.002 69.466 151.099 69.097 149.038L69.0887 148.991C68.6096 146.315 67.2597 144.361 65.0391 143.129C62.8437 141.861 59.4439 141.135 54.8395 140.951L47.316 140.688C40.5408 140.437 35.2796 139.067 31.5322 136.578C27.7794 134.058 25.4624 130.337 24.5811 125.415L24.5729 125.369C23.9262 121.58 24.3782 118.076 25.9289 114.857C27.4741 111.607 29.92 108.867 33.2667 106.637C36.608 104.376 40.634 102.836 45.3447 102.018C49.9631 101.216 54.1831 101.292 58.0048 102.246C61.8264 103.2 65.022 104.913 67.5916 107.385C70.1557 109.826 71.8969 112.901 72.8151 116.611L72.9935 117.341L62.8792 119.098L62.6794 118.514C62.0278 116.47 60.9386 114.82 59.4119 113.563C57.916 112.3 56.0985 111.458 53.9595 111.036C51.815 110.584 49.4188 110.588 46.771 111.048C44.0307 111.524 41.7189 112.353 39.8355 113.537C37.9466 114.689 36.5774 116.085 35.7279 117.723C34.8783 119.361 34.6298 121.165 34.9823 123.133L34.9905 123.179C35.4366 125.671 36.7854 127.53 39.0368 128.757C41.2882 129.983 44.572 130.682 48.8883 130.852L56.4201 131.162C61.1784 131.319 65.1506 131.961 68.3367 133.089C71.5228 134.217 74.0261 135.875 75.8468 138.065C77.6674 140.254 78.8861 143.072 79.503 146.517L79.5112 146.563C80.2382 150.623 79.8374 154.325 78.3088 157.667C76.8054 160.973 74.2908 163.772 70.7648 166.066C67.2641 168.323 62.8813 169.908 57.6164 170.823Z" fill="black"/>
</g>
<g filter="url(#filter2_dd_33_15)">
<g filter="url(#filter3_di_33_15)">
<path d="M36.3884 23.5982C37.1308 22.3124 38.3122 21.3503 39.6729 20.9236C41.0336 20.4969 42.462 20.6405 43.6439 21.3229L52.5568 26.4688C54.785 27.7552 55.1994 29.6105 55.6137 31.4658L57.271 38.8869C57.6854 40.7422 58.0997 42.5975 60.3279 43.884L73.6972 51.6027C75.9255 52.8892 77.7393 52.3204 79.5532 51.7516L86.8088 49.4763C88.6227 48.9075 90.4365 48.3387 92.6648 49.6251L184.77 102.802C185.952 103.484 186.79 104.65 187.101 106.041C187.412 107.433 187.17 108.937 186.427 110.223L158.436 158.705C157.694 159.991 156.512 160.953 155.152 161.38C153.791 161.806 152.363 161.663 151.181 160.98L59.0755 107.803C56.8473 106.517 55.0334 107.086 53.2195 107.655L45.9639 109.93C44.1501 110.499 42.3362 111.068 40.1079 109.781L26.7386 102.062C24.5104 100.776 24.0961 98.9205 23.6817 97.0653L22.0244 89.6441C21.6101 87.7889 21.1958 85.9336 18.9675 84.6471L10.0547 79.5013C8.87273 78.8189 8.03413 77.6537 7.72332 76.2619C7.41251 74.8702 7.65495 73.366 8.39732 72.0802L36.3884 23.5982Z" fill="#4C97FF" fill-opacity="0.8" shape-rendering="crispEdges"/>
<path d="M36.3884 23.5982C37.1308 22.3124 38.3122 21.3503 39.6729 20.9236C41.0336 20.4969 42.462 20.6405 43.6439 21.3229L52.5568 26.4688C54.785 27.7552 55.1994 29.6105 55.6137 31.4658L57.271 38.8869C57.6854 40.7422 58.0997 42.5975 60.3279 43.884L73.6972 51.6027C75.9255 52.8892 77.7393 52.3204 79.5532 51.7516L86.8088 49.4763C88.6227 48.9075 90.4365 48.3387 92.6648 49.6251L184.77 102.802C185.952 103.484 186.79 104.65 187.101 106.041C187.412 107.433 187.17 108.937 186.427 110.223L158.436 158.705C157.694 159.991 156.512 160.953 155.152 161.38C153.791 161.806 152.363 161.663 151.181 160.98L59.0755 107.803C56.8473 106.517 55.0334 107.086 53.2195 107.655L45.9639 109.93C44.1501 110.499 42.3362 111.068 40.1079 109.781L26.7386 102.062C24.5104 100.776 24.0961 98.9205 23.6817 97.0653L22.0244 89.6441C21.6101 87.7889 21.1958 85.9336 18.9675 84.6471L10.0547 79.5013C8.87273 78.8189 8.03413 77.6537 7.72332 76.2619C7.41251 74.8702 7.65495 73.366 8.39732 72.0802L36.3884 23.5982Z" stroke="#3D79CC" stroke-opacity="0.8" stroke-width="0.1875" shape-rendering="crispEdges"/>
</g>
<g filter="url(#filter4_dd_33_15)">
<path d="M36.0134 23.5982C36.7558 22.3124 37.9372 21.3503 39.2979 20.9236C40.6586 20.4969 42.087 20.6405 43.2689 21.3229L52.1818 26.4688C54.41 27.7552 54.8244 29.6105 55.2387 31.4658L56.896 38.8869C57.3104 40.7422 57.7247 42.5975 59.9529 43.884L73.3222 51.6027C75.5505 52.8892 77.3643 52.3204 79.1782 51.7516L86.4338 49.4763C88.2477 48.9075 90.0615 48.3387 92.2898 49.6251L184.395 102.802C185.577 103.484 186.415 104.65 186.726 106.041C187.037 107.433 186.795 108.937 186.052 110.223L158.061 158.705C157.319 159.991 156.137 160.953 154.777 161.38C153.416 161.806 151.988 161.663 150.806 160.98L58.7005 107.803C56.4723 106.517 54.6584 107.086 52.8445 107.655L45.5889 109.93C43.7751 110.499 41.9612 111.068 39.7329 109.781L26.3636 102.062C24.1354 100.776 23.7211 98.9205 23.3067 97.0653L21.6494 89.6441C21.2351 87.7889 20.8208 85.9336 18.5925 84.6471L9.67965 79.5013C8.49773 78.8189 7.65913 77.6537 7.34832 76.2619C7.03751 74.8702 7.27995 73.366 8.02232 72.0802L36.0134 23.5982Z" fill="url(#paint1_linear_33_15)" fill-opacity="0.8" stroke="#3D79CC" stroke-opacity="0.8" stroke-width="0.1875"/>
</g>
</g>
<g filter="url(#filter5_d_33_15)">
<path d="M76.9549 109.469L76.9353 109.458C71.5989 106.432 67.5406 104.13 63.4476 101.026C59.4636 98.0051 55.4346 94.2139 50.1797 88.2446C61.3891 81.5105 67.3007 75.5169 70.2991 70.2264C73.1829 65.138 73.3412 60.7542 73.0026 57.105C73.9349 57.1893 75.4059 57.4188 77.2511 57.7928C79.5979 58.2685 82.5024 58.9639 85.5727 59.8399C91.7302 61.5968 98.4884 64.0628 102.772 66.9141C120.086 78.4381 133.17 92.7033 136.919 105.314L137.062 105.794L137.583 105.687L164.385 100.171C165.867 100.132 167.189 100.906 167.906 101.921C168.634 102.952 168.645 104.053 167.853 104.782L151.117 120.197L151.008 120.297L150.963 120.434L144.019 141.399C143.691 142.391 142.64 142.89 141.324 142.762C140.026 142.636 138.676 141.895 138.032 140.643L130.538 117.713L130.388 117.252L129.883 117.352C116.078 120.078 95.0172 119.71 76.9549 109.469ZM49.5169 87.3635C45.3303 80.6571 42.5524 73.9973 41.0689 68.5983C40.3096 65.8349 39.8925 63.4141 39.7935 61.496C39.7441 60.5368 39.7745 59.7137 39.8772 59.0425C39.981 58.3648 40.1536 57.8762 40.3599 57.5592C40.5221 57.3103 40.8384 57.0468 41.3753 56.7959C41.9083 56.5468 42.6159 56.3301 43.4966 56.1509C45.2577 55.7926 47.6288 55.6028 50.4951 55.5687C56.122 55.5016 63.5624 56.037 71.8296 57.0114C72.1834 60.5842 72.078 64.8012 69.2844 69.7305C66.4129 74.7969 60.6687 80.6732 49.5169 87.3635Z" fill="url(#paint2_linear_33_15)"/>
<path d="M76.9549 109.469L76.9353 109.458C71.5989 106.432 67.5406 104.13 63.4476 101.026C59.4636 98.0051 55.4346 94.2139 50.1797 88.2446C61.3891 81.5105 67.3007 75.5169 70.2991 70.2264C73.1829 65.138 73.3412 60.7542 73.0026 57.105C73.9349 57.1893 75.4059 57.4188 77.2511 57.7928C79.5979 58.2685 82.5024 58.9639 85.5727 59.8399C91.7302 61.5968 98.4884 64.0628 102.772 66.9141C120.086 78.4381 133.17 92.7033 136.919 105.314L137.062 105.794L137.583 105.687L164.385 100.171C165.867 100.132 167.189 100.906 167.906 101.921C168.634 102.952 168.645 104.053 167.853 104.782L151.117 120.197L151.008 120.297L150.963 120.434L144.019 141.399C143.691 142.391 142.64 142.89 141.324 142.762C140.026 142.636 138.676 141.895 138.032 140.643L130.538 117.713L130.388 117.252L129.883 117.352C116.078 120.078 95.0172 119.71 76.9549 109.469ZM49.5169 87.3635C45.3303 80.6571 42.5524 73.9973 41.0689 68.5983C40.3096 65.8349 39.8925 63.4141 39.7935 61.496C39.7441 60.5368 39.7745 59.7137 39.8772 59.0425C39.981 58.3648 40.1536 57.8762 40.3599 57.5592C40.5221 57.3103 40.8384 57.0468 41.3753 56.7959C41.9083 56.5468 42.6159 56.3301 43.4966 56.1509C45.2577 55.7926 47.6288 55.6028 50.4951 55.5687C56.122 55.5016 63.5624 56.037 71.8296 57.0114C72.1834 60.5842 72.078 64.8012 69.2844 69.7305C66.4129 74.7969 60.6687 80.6732 49.5169 87.3635Z" fill="url(#paint3_linear_33_15)"/>
<path d="M76.9549 109.469L76.9353 109.458C71.5989 106.432 67.5406 104.13 63.4476 101.026C59.4636 98.0051 55.4346 94.2139 50.1797 88.2446C61.3891 81.5105 67.3007 75.5169 70.2991 70.2264C73.1829 65.138 73.3412 60.7542 73.0026 57.105C73.9349 57.1893 75.4059 57.4188 77.2511 57.7928C79.5979 58.2685 82.5024 58.9639 85.5727 59.8399C91.7302 61.5968 98.4884 64.0628 102.772 66.9141C120.086 78.4381 133.17 92.7033 136.919 105.314L137.062 105.794L137.583 105.687L164.385 100.171C165.867 100.132 167.189 100.906 167.906 101.921C168.634 102.952 168.645 104.053 167.853 104.782L151.117 120.197L151.008 120.297L150.963 120.434L144.019 141.399C143.691 142.391 142.64 142.89 141.324 142.762C140.026 142.636 138.676 141.895 138.032 140.643L130.538 117.713L130.388 117.252L129.883 117.352C116.078 120.078 95.0172 119.71 76.9549 109.469ZM49.5169 87.3635C45.3303 80.6571 42.5524 73.9973 41.0689 68.5983C40.3096 65.8349 39.8925 63.4141 39.7935 61.496C39.7441 60.5368 39.7745 59.7137 39.8772 59.0425C39.981 58.3648 40.1536 57.8762 40.3599 57.5592C40.5221 57.3103 40.8384 57.0468 41.3753 56.7959C41.9083 56.5468 42.6159 56.3301 43.4966 56.1509C45.2577 55.7926 47.6288 55.6028 50.4951 55.5687C56.122 55.5016 63.5624 56.037 71.8296 57.0114C72.1834 60.5842 72.078 64.8012 69.2844 69.7305C66.4129 74.7969 60.6687 80.6732 49.5169 87.3635Z" stroke="black" stroke-width="1.125"/>
<g filter="url(#filter6_i_33_15)">
<ellipse cx="57.4642" cy="66.3184" rx="3.54437" ry="3.54881" transform="rotate(-60 57.4642 66.3184)" fill="black"/>
<ellipse cx="57.4642" cy="66.3184" rx="3.54437" ry="3.54881" transform="rotate(-60 57.4642 66.3184)" fill="url(#paint4_linear_33_15)"/>
</g>
</g>
</g>
<defs>
<filter id="filter0_d_33_15" x="108.806" y="20.6718" width="64.783" height="85.0576" filterUnits="userSpaceOnUse" color-interpolation-filters="sRGB">
<feFlood flood-opacity="0" result="BackgroundImageFix"/>
<feColorMatrix in="SourceAlpha" type="matrix" values="0 0 0 0 0 0 0 0 0 0 0 0 0 0 0 0 0 0 127 0" result="hardAlpha"/>
<feOffset dy="1.875"/>
<feGaussianBlur stdDeviation="2.8125"/>
<feComposite in2="hardAlpha" operator="out"/>
<feColorMatrix type="matrix" values="0 0 0 0 0 0 0 0 0 0 0 0 0 0 0 0 0 0 0.25 0"/>
<feBlend mode="normal" in2="BackgroundImageFix" result="effect1_dropShadow_33_15"/>
<feBlend mode="normal" in="SourceGraphic" in2="effect1_dropShadow_33_15" result="shape"/>
</filter>
<filter id="filter1_d_33_15" x="13.9491" y="93.8572" width="74.7396" height="88.9325" filterUnits="userSpaceOnUse" color-interpolation-filters="sRGB">
<feFlood flood-opacity="0" result="BackgroundImageFix"/>
<feColorMatrix in="SourceAlpha" type="matrix" values="0 0 0 0 0 0 0 0 0 0 0 0 0 0 0 0 0 0 127 0" result="hardAlpha"/>
<feOffset dy="1.875"/>
<feGaussianBlur stdDeviation="2.8125"/>
<feComposite in2="hardAlpha" operator="out"/>
<feColorMatrix type="matrix" values="0 0 0 0 0 0 0 0 0 0 0 0 0 0 0 0 0 0 0.25 0"/>
<feBlend mode="normal" in2="BackgroundImageFix" result="effect1_dropShadow_33_15"/>
<feBlend mode="normal" in="SourceGraphic" in2="effect1_dropShadow_33_15" result="shape"/>
</filter>
<filter id="filter2_dd_33_15" x="1.49744" y="14.9637" width="197.08" height="158.001" filterUnits="userSpaceOnUse" color-interpolation-filters="sRGB">
<feFlood flood-opacity="0" result="BackgroundImageFix"/>
<feColorMatrix in="SourceAlpha" type="matrix" values="0 0 0 0 0 0 0 0 0 0 0 0 0 0 0 0 0 0 127 0" result="hardAlpha"/>
<feOffset dx="5.625" dy="5.625"/>
<feGaussianBlur stdDeviation="2.8125"/>
<feComposite in2="hardAlpha" operator="out"/>
<feColorMatrix type="matrix" values="0 0 0 0 0 0 0 0 0 0 0 0 0 0 0 0 0 0 0.25 0"/>
<feBlend mode="normal" in2="BackgroundImageFix" result="effect1_dropShadow_33_15"/>
<feColorMatrix in="SourceAlpha" type="matrix" values="0 0 0 0 0 0 0 0 0 0 0 0 0 0 0 0 0 0 127 0" result="hardAlpha"/>
<feOffset dx="0.1875" dy="0.1875"/>
<feGaussianBlur stdDeviation="0.009375"/>
<feComposite in2="hardAlpha" operator="out"/>
<feColorMatrix type="matrix" values="0 0 0 0 0.239216 0 0 0 0 0.47451 0 0 0 0 0.8 0 0 0 1 0"/>
<feBlend mode="normal" in2="effect1_dropShadow_33_15" result="effect2_dropShadow_33_15"/>
<feBlend mode="normal" in="SourceGraphic" in2="effect2_dropShadow_33_15" result="shape"/>
</filter>
<filter id="filter3_di_33_15" x="6.74744" y="20.2137" width="181.33" height="143.001" filterUnits="userSpaceOnUse" color-interpolation-filters="sRGB">
<feFlood flood-opacity="0" result="BackgroundImageFix"/>
<feColorMatrix in="SourceAlpha" type="matrix" values="0 0 0 0 0 0 0 0 0 0 0 0 0 0 0 0 0 0 127 0" result="hardAlpha"/>
<feOffset dy="0.75"/>
<feGaussianBlur stdDeviation="0.375"/>
<feComposite in2="hardAlpha" operator="out"/>
<feColorMatrix type="matrix" values="0 0 0 0 0 0 0 0 0 0 0 0 0 0 0 0 0 0 0.25 0"/>
<feBlend mode="normal" in2="BackgroundImageFix" result="effect1_dropShadow_33_15"/>
<feBlend mode="normal" in="SourceGraphic" in2="effect1_dropShadow_33_15" result="shape"/>
<feColorMatrix in="SourceAlpha" type="matrix" values="0 0 0 0 0 0 0 0 0 0 0 0 0 0 0 0 0 0 127 0" result="hardAlpha"/>
<feOffset dx="-1.875" dy="-1.875"/>
<feGaussianBlur stdDeviation="0.1875"/>
<feComposite in2="hardAlpha" operator="arithmetic" k2="-1" k3="1"/>
<feColorMatrix type="matrix" values="0 0 0 0 0 0 0 0 0 0 0 0 0 0 0 0 0 0 0.4 0"/>
<feBlend mode="normal" in2="shape" result="effect2_innerShadow_33_15"/>
</filter>
<filter id="filter4_dd_33_15" x="1.49744" y="14.9637" width="196.705" height="158.001" filterUnits="userSpaceOnUse" color-interpolation-filters="sRGB">
<feFlood flood-opacity="0" result="BackgroundImageFix"/>
<feColorMatrix in="SourceAlpha" type="matrix" values="0 0 0 0 0 0 0 0 0 0 0 0 0 0 0 0 0 0 127 0" result="hardAlpha"/>
<feOffset dx="5.625" dy="5.625"/>
<feGaussianBlur stdDeviation="2.8125"/>
<feComposite in2="hardAlpha" operator="out"/>
<feColorMatrix type="matrix" values="0 0 0 0 0 0 0 0 0 0 0 0 0 0 0 0 0 0 0.25 0"/>
<feBlend mode="normal" in2="BackgroundImageFix" result="effect1_dropShadow_33_15"/>
<feColorMatrix in="SourceAlpha" type="matrix" values="0 0 0 0 0 0 0 0 0 0 0 0 0 0 0 0 0 0 127 0" result="hardAlpha"/>
<feOffset dx="0.1875" dy="0.1875"/>
<feGaussianBlur stdDeviation="0.009375"/>
<feComposite in2="hardAlpha" operator="out"/>
<feColorMatrix type="matrix" values="0 0 0 0 0.239216 0 0 0 0 0.47451 0 0 0 0 0.8 0 0 0 1 0"/>
<feBlend mode="normal" in2="effect1_dropShadow_33_15" result="effect2_dropShadow_33_15"/>
<feBlend mode="normal" in="SourceGraphic" in2="effect2_dropShadow_33_15" result="shape"/>
</filter>
<filter id="filter5_d_33_15" x="38.4426" y="55.0156" width="131.334" height="89.8126" filterUnits="userSpaceOnUse" color-interpolation-filters="sRGB">
<feFlood flood-opacity="0" result="BackgroundImageFix"/>
<feColorMatrix in="SourceAlpha" type="matrix" values="0 0 0 0 0 0 0 0 0 0 0 0 0 0 0 0 0 0 127 0" result="hardAlpha"/>
<feOffset dy="0.75"/>
<feGaussianBlur stdDeviation="0.375"/>
<feComposite in2="hardAlpha" operator="out"/>
<feColorMatrix type="matrix" values="0 0 0 0 0 0 0 0 0 0 0 0 0 0 0 0 0 0 0.25 0"/>
<feBlend mode="normal" in2="BackgroundImageFix" result="effect1_dropShadow_33_15"/>
<feBlend mode="normal" in="SourceGraphic" in2="effect1_dropShadow_33_15" result="shape"/>
</filter>
<filter id="filter6_i_33_15" x="53.9159" y="62.7723" width="7.09656" height="7.84216" filterUnits="userSpaceOnUse" color-interpolation-filters="sRGB">
<feFlood flood-opacity="0" result="BackgroundImageFix"/>
<feBlend mode="normal" in="SourceGraphic" in2="BackgroundImageFix" result="shape"/>
<feColorMatrix in="SourceAlpha" type="matrix" values="0 0 0 0 0 0 0 0 0 0 0 0 0 0 0 0 0 0 127 0" result="hardAlpha"/>
<feOffset dy="3.75"/>
<feGaussianBlur stdDeviation="0.375"/>
<feComposite in2="hardAlpha" operator="arithmetic" k2="-1" k3="1"/>
<feColorMatrix type="matrix" values="0 0 0 0 0 0 0 0 0 0 0 0 0 0 0 0 0 0 0.25 0"/>
<feBlend mode="normal" in2="shape" result="effect1_innerShadow_33_15"/>
</filter>
<linearGradient id="paint0_linear_33_15" x1="96" y1="0" x2="96" y2="198.938" gradientUnits="userSpaceOnUse">
<stop stop-color="#9558FF"/>
<stop offset="1" stop-color="#5A3599"/>
</linearGradient>
<linearGradient id="paint1_linear_33_15" x1="59.914" y1="131.437" x2="143.914" y2="13.0312" gradientUnits="userSpaceOnUse">
<stop stop-color="white" stop-opacity="0"/>
<stop offset="1" stop-color="white" stop-opacity="0.2"/>
</linearGradient>
<linearGradient id="paint2_linear_33_15" x1="46.27" y1="46.1106" x2="73.8793" y2="154.062" gradientUnits="userSpaceOnUse">
<stop stop-color="#FF9090"/>
<stop offset="1" stop-color="#FF6B6B"/>
</linearGradient>
<linearGradient id="paint3_linear_33_15" x1="90.2812" y1="38.625" x2="54.6661" y2="110.328" gradientUnits="userSpaceOnUse">
<stop stop-color="white" stop-opacity="0.6"/>
<stop offset="0.5" stop-color="white" stop-opacity="0"/>
</linearGradient>
<linearGradient id="paint4_linear_33_15" x1="61.0086" y1="66.3184" x2="58.801" y2="66.3096" gradientUnits="userSpaceOnUse">
<stop stop-color="white" stop-opacity="0.3"/>
<stop offset="1" stop-color="white" stop-opacity="0"/>
</linearGradient>
<clipPath id="clip0_33_15">
<rect width="192" height="192" rx="48" fill="white"/>
</clipPath>
</defs>
</svg>
