<svg width="512" height="512" viewBox="0 0 512 512" fill="none" xmlns="http://www.w3.org/2000/svg">
<g clip-path="url(#clip0_33_2)">
<rect width="512" height="512" rx="128" fill="url(#paint0_linear_33_2)"/>
<g filter="url(#filter0_d_33_2)">
<path d="M335.884 260.775L304.093 83.2237L415.058 63.9549L419.332 87.8253L335.955 102.304L346 158.411L422.358 145.152L426.522 168.407L350.164 181.667L363.471 255.985L335.884 260.775Z" fill="black"/>
</g>
<g filter="url(#filter1_d_33_2)">
<path d="M152.752 454.329C139.451 456.638 127.432 456.653 116.696 454.373C106.041 452.079 97.1312 447.706 89.9653 441.253C82.7847 434.719 77.8922 426.307 75.288 416.018L74.8344 414.193L101.806 409.51L102.339 411.067C104.129 416.338 107.231 420.663 111.646 424.04C116.127 427.322 121.597 429.502 128.055 430.579C134.512 431.657 141.682 431.512 149.564 430.143C157.528 428.76 164.186 426.462 169.537 423.249C174.887 420.036 178.756 416.108 181.141 411.465C183.609 406.808 184.351 401.731 183.367 396.235L183.345 396.112C182.067 388.976 178.467 383.765 172.546 380.479C166.691 377.098 157.625 375.162 145.347 374.672L125.284 373.969C107.217 373.301 93.187 369.647 83.1941 363.009C73.1865 356.289 67.0078 346.367 64.6578 333.242L64.6358 333.119C62.9114 323.015 64.1168 313.671 68.2519 305.087C72.3723 296.422 78.8949 289.115 87.8195 283.167C96.7294 277.137 107.465 273.031 120.027 270.85C132.343 268.711 143.596 268.914 153.788 271.458C163.979 274.002 172.5 278.569 179.352 285.161C186.19 291.67 190.833 299.872 193.282 309.765L193.757 311.712L166.786 316.396L166.253 314.839C164.516 309.389 161.611 304.988 157.54 301.635C153.551 298.268 148.704 296.023 143 294.899C137.282 293.693 130.892 293.703 123.831 294.929C116.523 296.198 110.359 298.41 105.336 301.566C100.299 304.64 96.6479 308.361 94.3824 312.729C92.117 317.098 91.4542 321.907 92.3942 327.157L92.4162 327.28C93.6059 333.924 97.2026 338.882 103.206 342.153C109.21 345.424 117.967 347.287 129.477 347.741L149.562 348.567C162.251 348.985 172.843 350.698 181.339 353.705C189.836 356.713 196.511 361.136 201.366 366.975C206.221 372.813 209.471 380.326 211.116 389.513L211.138 389.636C213.077 400.464 212.008 410.334 207.932 419.246C203.923 428.062 197.217 435.528 187.814 441.643C178.479 447.662 166.792 451.891 152.752 454.329Z" fill="black"/>
</g>
<g filter="url(#filter2_dd_33_2)">
<g filter="url(#filter3_di_33_2)">
<path d="M97.0357 62.9285C99.0154 59.4997 102.166 56.9341 105.794 55.7963C109.423 54.6584 113.232 55.0415 116.384 56.8611L140.152 70.5834C146.093 74.014 147.198 78.9614 148.303 83.9088L152.723 103.698C153.828 108.646 154.933 113.593 160.874 117.024L196.526 137.607C202.468 141.038 207.305 139.521 212.142 138.004L231.49 131.937C236.327 130.42 241.164 128.903 247.106 132.334L492.72 274.139C495.872 275.959 498.108 279.066 498.937 282.777C499.766 286.488 499.119 290.5 497.139 293.929L422.497 423.214C420.517 426.643 417.366 429.208 413.738 430.346C410.109 431.484 406.3 431.101 403.148 429.281L157.535 287.476C151.593 284.045 146.756 285.562 141.919 287.079L122.571 293.146C117.733 294.663 112.896 296.18 106.955 292.75L71.303 272.166C65.3611 268.736 64.2562 263.788 63.1513 258.841L58.7318 239.051C57.6269 234.104 56.522 229.156 50.5801 225.726L26.8124 212.003C23.6606 210.184 21.4243 207.076 20.5955 203.365C19.7667 199.654 20.4132 195.643 22.3929 192.214L97.0357 62.9285Z" fill="#4C97FF" fill-opacity="0.8" shape-rendering="crispEdges"/>
<path d="M97.0357 62.9285C99.0154 59.4997 102.166 56.9341 105.794 55.7963C109.423 54.6584 113.232 55.0415 116.384 56.8611L140.152 70.5834C146.093 74.014 147.198 78.9614 148.303 83.9088L152.723 103.698C153.828 108.646 154.933 113.593 160.874 117.024L196.526 137.607C202.468 141.038 207.305 139.521 212.142 138.004L231.49 131.937C236.327 130.42 241.164 128.903 247.106 132.334L492.72 274.139C495.872 275.959 498.108 279.066 498.937 282.777C499.766 286.488 499.119 290.5 497.139 293.929L422.497 423.214C420.517 426.643 417.366 429.208 413.738 430.346C410.109 431.484 406.3 431.101 403.148 429.281L157.535 287.476C151.593 284.045 146.756 285.562 141.919 287.079L122.571 293.146C117.733 294.663 112.896 296.18 106.955 292.75L71.303 272.166C65.3611 268.736 64.2562 263.788 63.1513 258.841L58.7318 239.051C57.6269 234.104 56.522 229.156 50.5801 225.726L26.8124 212.003C23.6606 210.184 21.4243 207.076 20.5955 203.365C19.7667 199.654 20.4132 195.643 22.3929 192.214L97.0357 62.9285Z" stroke="#3D79CC" stroke-opacity="0.8" stroke-width="0.5" shape-rendering="crispEdges"/>
</g>
<g filter="url(#filter4_dd_33_2)">
<path d="M96.0357 62.9285C98.0154 59.4997 101.166 56.9341 104.794 55.7963C108.423 54.6584 112.232 55.0415 115.384 56.8611L139.152 70.5834C145.093 74.014 146.198 78.9614 147.303 83.9088L151.723 103.698C152.828 108.646 153.933 113.593 159.874 117.024L195.526 137.607C201.468 141.038 206.305 139.521 211.142 138.004L230.49 131.937C235.327 130.42 240.164 128.903 246.106 132.334L491.72 274.139C494.872 275.959 497.108 279.066 497.937 282.777C498.766 286.488 498.119 290.5 496.139 293.929L421.497 423.214C419.517 426.643 416.366 429.208 412.738 430.346C409.109 431.484 405.3 431.101 402.148 429.281L156.535 287.476C150.593 284.045 145.756 285.562 140.919 287.079L121.571 293.146C116.733 294.663 111.896 296.18 105.955 292.75L70.303 272.166C64.3611 268.736 63.2562 263.788 62.1513 258.841L57.7318 239.051C56.6269 234.104 55.522 229.156 49.5801 225.726L25.8124 212.003C22.6606 210.184 20.4243 207.076 19.5955 203.365C18.7667 199.654 19.4132 195.643 21.3929 192.214L96.0357 62.9285Z" fill="url(#paint1_linear_33_2)" fill-opacity="0.8" stroke="#3D79CC" stroke-opacity="0.8" stroke-width="0.5"/>
</g>
</g>
<g filter="url(#filter5_d_33_2)">
<path d="M205.213 291.918L205.162 291.889C190.931 283.82 180.109 277.681 169.194 269.404C158.571 261.348 147.826 251.239 133.813 235.322C163.706 217.364 179.468 201.379 187.464 187.271C195.155 173.699 195.576 162.007 194.672 152.275C197.158 152.5 201.081 153.117 206.003 154.115C212.261 155.383 220.006 157.236 228.193 159.572C244.614 164.257 262.637 170.833 274.061 178.437C320.231 209.168 355.121 247.208 365.118 280.838L365.498 282.118L366.888 281.831L438.372 267.12C442.318 267.02 445.84 269.087 447.749 271.79C449.63 274.454 449.716 277.29 447.8 279.233L447.608 279.419L402.978 320.525L402.687 320.793L402.567 321.157L384.053 377.065L383.965 377.309C383.002 379.792 380.264 381.029 376.864 380.699C373.406 380.364 369.808 378.392 368.09 375.062L348.102 313.9L347.701 312.674L346.356 312.939C309.542 320.209 253.379 319.228 205.213 291.918ZM132.043 232.975C120.877 215.089 113.473 197.326 109.517 182.927C107.492 175.558 106.38 169.104 106.116 163.989C105.984 161.432 106.066 159.237 106.34 157.447C106.617 155.64 107.075 154.337 107.625 153.492C108.057 152.828 108.902 152.127 110.335 151.457C111.756 150.793 113.642 150.214 115.991 149.736C120.687 148.781 127.011 148.273 134.655 148.182C149.66 148.004 169.502 149.43 191.548 152.029C192.492 161.557 192.209 172.802 184.759 185.948C177.102 199.459 161.784 215.133 132.043 232.975Z" fill="url(#paint2_linear_33_2)"/>
<path d="M205.213 291.918L205.162 291.889C190.931 283.82 180.109 277.681 169.194 269.404C158.571 261.348 147.826 251.239 133.813 235.322C163.706 217.364 179.468 201.379 187.464 187.271C195.155 173.699 195.576 162.007 194.672 152.275C197.158 152.5 201.081 153.117 206.003 154.115C212.261 155.383 220.006 157.236 228.193 159.572C244.614 164.257 262.637 170.833 274.061 178.437C320.231 209.168 355.121 247.208 365.118 280.838L365.498 282.118L366.888 281.831L438.372 267.12C442.318 267.02 445.84 269.087 447.749 271.79C449.63 274.454 449.716 277.29 447.8 279.233L447.608 279.419L402.978 320.525L402.687 320.793L402.567 321.157L384.053 377.065L383.965 377.309C383.002 379.792 380.264 381.029 376.864 380.699C373.406 380.364 369.808 378.392 368.09 375.062L348.102 313.9L347.701 312.674L346.356 312.939C309.542 320.209 253.379 319.228 205.213 291.918ZM132.043 232.975C120.877 215.089 113.473 197.326 109.517 182.927C107.492 175.558 106.38 169.104 106.116 163.989C105.984 161.432 106.066 159.237 106.34 157.447C106.617 155.64 107.075 154.337 107.625 153.492C108.057 152.828 108.902 152.127 110.335 151.457C111.756 150.793 113.642 150.214 115.991 149.736C120.687 148.781 127.011 148.273 134.655 148.182C149.66 148.004 169.502 149.43 191.548 152.029C192.492 161.557 192.209 172.802 184.759 185.948C177.102 199.459 161.784 215.133 132.043 232.975Z" fill="url(#paint3_linear_33_2)"/>
<path d="M205.213 291.918L205.162 291.889C190.931 283.82 180.109 277.681 169.194 269.404C158.571 261.348 147.826 251.239 133.813 235.322C163.706 217.364 179.468 201.379 187.464 187.271C195.155 173.699 195.576 162.007 194.672 152.275C197.158 152.5 201.081 153.117 206.003 154.115C212.261 155.383 220.006 157.236 228.193 159.572C244.614 164.257 262.637 170.833 274.061 178.437C320.231 209.168 355.121 247.208 365.118 280.838L365.498 282.118L366.888 281.831L438.372 267.12C442.318 267.02 445.84 269.087 447.749 271.79C449.63 274.454 449.716 277.29 447.8 279.233L447.608 279.419L402.978 320.525L402.687 320.793L402.567 321.157L384.053 377.065L383.965 377.309C383.002 379.792 380.264 381.029 376.864 380.699C373.406 380.364 369.808 378.392 368.09 375.062L348.102 313.9L347.701 312.674L346.356 312.939C309.542 320.209 253.379 319.228 205.213 291.918ZM132.043 232.975C120.877 215.089 113.473 197.326 109.517 182.927C107.492 175.558 106.38 169.104 106.116 163.989C105.984 161.432 106.066 159.237 106.34 157.447C106.617 155.64 107.075 154.337 107.625 153.492C108.057 152.828 108.902 152.127 110.335 151.457C111.756 150.793 113.642 150.214 115.991 149.736C120.687 148.781 127.011 148.273 134.655 148.182C149.66 148.004 169.502 149.43 191.548 152.029C192.492 161.557 192.209 172.802 184.759 185.948C177.102 199.459 161.784 215.133 132.043 232.975Z" stroke="black" stroke-width="3"/>
<g filter="url(#filter6_i_33_2)">
<ellipse cx="153.238" cy="176.849" rx="9.45166" ry="9.4635" transform="rotate(-60 153.238 176.849)" fill="black"/>
<ellipse cx="153.238" cy="176.849" rx="9.45166" ry="9.4635" transform="rotate(-60 153.238 176.849)" fill="url(#paint4_linear_33_2)"/>
</g>
</g>
</g>
<defs>
<filter id="filter0_d_33_2" x="289.093" y="53.9548" width="172.755" height="226.82" filterUnits="userSpaceOnUse" color-interpolation-filters="sRGB">
<feFlood flood-opacity="0" result="BackgroundImageFix"/>
<feColorMatrix in="SourceAlpha" type="matrix" values="0 0 0 0 0 0 0 0 0 0 0 0 0 0 0 0 0 0 127 0" result="hardAlpha"/>
<feOffset dy="5"/>
<feGaussianBlur stdDeviation="7.5"/>
<feComposite in2="hardAlpha" operator="out"/>
<feColorMatrix type="matrix" values="0 0 0 0 0 0 0 0 0 0 0 0 0 0 0 0 0 0 0.25 0"/>
<feBlend mode="normal" in2="BackgroundImageFix" result="effect1_dropShadow_33_2"/>
<feBlend mode="normal" in="SourceGraphic" in2="effect1_dropShadow_33_2" result="shape"/>
</filter>
<filter id="filter1_d_33_2" x="36.3058" y="249.088" width="199.306" height="237.153" filterUnits="userSpaceOnUse" color-interpolation-filters="sRGB">
<feFlood flood-opacity="0" result="BackgroundImageFix"/>
<feColorMatrix in="SourceAlpha" type="matrix" values="0 0 0 0 0 0 0 0 0 0 0 0 0 0 0 0 0 0 127 0" result="hardAlpha"/>
<feOffset dy="5"/>
<feGaussianBlur stdDeviation="7.5"/>
<feComposite in2="hardAlpha" operator="out"/>
<feColorMatrix type="matrix" values="0 0 0 0 0 0 0 0 0 0 0 0 0 0 0 0 0 0 0.25 0"/>
<feBlend mode="normal" in2="BackgroundImageFix" result="effect1_dropShadow_33_2"/>
<feBlend mode="normal" in="SourceGraphic" in2="effect1_dropShadow_33_2" result="shape"/>
</filter>
<filter id="filter2_dd_33_2" x="3.99304" y="39.9033" width="525.546" height="421.336" filterUnits="userSpaceOnUse" color-interpolation-filters="sRGB">
<feFlood flood-opacity="0" result="BackgroundImageFix"/>
<feColorMatrix in="SourceAlpha" type="matrix" values="0 0 0 0 0 0 0 0 0 0 0 0 0 0 0 0 0 0 127 0" result="hardAlpha"/>
<feOffset dx="15" dy="15"/>
<feGaussianBlur stdDeviation="7.5"/>
<feComposite in2="hardAlpha" operator="out"/>
<feColorMatrix type="matrix" values="0 0 0 0 0 0 0 0 0 0 0 0 0 0 0 0 0 0 0.25 0"/>
<feBlend mode="normal" in2="BackgroundImageFix" result="effect1_dropShadow_33_2"/>
<feColorMatrix in="SourceAlpha" type="matrix" values="0 0 0 0 0 0 0 0 0 0 0 0 0 0 0 0 0 0 127 0" result="hardAlpha"/>
<feOffset dx="0.5" dy="0.5"/>
<feGaussianBlur stdDeviation="0.025"/>
<feComposite in2="hardAlpha" operator="out"/>
<feColorMatrix type="matrix" values="0 0 0 0 0.239216 0 0 0 0 0.47451 0 0 0 0 0.8 0 0 0 1 0"/>
<feBlend mode="normal" in2="effect1_dropShadow_33_2" result="effect2_dropShadow_33_2"/>
<feBlend mode="normal" in="SourceGraphic" in2="effect2_dropShadow_33_2" result="shape"/>
</filter>
<filter id="filter3_di_33_2" x="17.993" y="53.9033" width="483.546" height="381.336" filterUnits="userSpaceOnUse" color-interpolation-filters="sRGB">
<feFlood flood-opacity="0" result="BackgroundImageFix"/>
<feColorMatrix in="SourceAlpha" type="matrix" values="0 0 0 0 0 0 0 0 0 0 0 0 0 0 0 0 0 0 127 0" result="hardAlpha"/>
<feOffset dy="2"/>
<feGaussianBlur stdDeviation="1"/>
<feComposite in2="hardAlpha" operator="out"/>
<feColorMatrix type="matrix" values="0 0 0 0 0 0 0 0 0 0 0 0 0 0 0 0 0 0 0.25 0"/>
<feBlend mode="normal" in2="BackgroundImageFix" result="effect1_dropShadow_33_2"/>
<feBlend mode="normal" in="SourceGraphic" in2="effect1_dropShadow_33_2" result="shape"/>
<feColorMatrix in="SourceAlpha" type="matrix" values="0 0 0 0 0 0 0 0 0 0 0 0 0 0 0 0 0 0 127 0" result="hardAlpha"/>
<feOffset dx="-5" dy="-5"/>
<feGaussianBlur stdDeviation="0.5"/>
<feComposite in2="hardAlpha" operator="arithmetic" k2="-1" k3="1"/>
<feColorMatrix type="matrix" values="0 0 0 0 0 0 0 0 0 0 0 0 0 0 0 0 0 0 0.4 0"/>
<feBlend mode="normal" in2="shape" result="effect2_innerShadow_33_2"/>
</filter>
<filter id="filter4_dd_33_2" x="3.99304" y="39.9033" width="524.546" height="421.336" filterUnits="userSpaceOnUse" color-interpolation-filters="sRGB">
<feFlood flood-opacity="0" result="BackgroundImageFix"/>
<feColorMatrix in="SourceAlpha" type="matrix" values="0 0 0 0 0 0 0 0 0 0 0 0 0 0 0 0 0 0 127 0" result="hardAlpha"/>
<feOffset dx="15" dy="15"/>
<feGaussianBlur stdDeviation="7.5"/>
<feComposite in2="hardAlpha" operator="out"/>
<feColorMatrix type="matrix" values="0 0 0 0 0 0 0 0 0 0 0 0 0 0 0 0 0 0 0.25 0"/>
<feBlend mode="normal" in2="BackgroundImageFix" result="effect1_dropShadow_33_2"/>
<feColorMatrix in="SourceAlpha" type="matrix" values="0 0 0 0 0 0 0 0 0 0 0 0 0 0 0 0 0 0 127 0" result="hardAlpha"/>
<feOffset dx="0.5" dy="0.5"/>
<feGaussianBlur stdDeviation="0.025"/>
<feComposite in2="hardAlpha" operator="out"/>
<feColorMatrix type="matrix" values="0 0 0 0 0.239216 0 0 0 0 0.47451 0 0 0 0 0.8 0 0 0 1 0"/>
<feBlend mode="normal" in2="effect1_dropShadow_33_2" result="effect2_dropShadow_33_2"/>
<feBlend mode="normal" in="SourceGraphic" in2="effect2_dropShadow_33_2" result="shape"/>
</filter>
<filter id="filter5_d_33_2" x="102.514" y="146.709" width="350.225" height="239.5" filterUnits="userSpaceOnUse" color-interpolation-filters="sRGB">
<feFlood flood-opacity="0" result="BackgroundImageFix"/>
<feColorMatrix in="SourceAlpha" type="matrix" values="0 0 0 0 0 0 0 0 0 0 0 0 0 0 0 0 0 0 127 0" result="hardAlpha"/>
<feOffset dy="2"/>
<feGaussianBlur stdDeviation="1"/>
<feComposite in2="hardAlpha" operator="out"/>
<feColorMatrix type="matrix" values="0 0 0 0 0 0 0 0 0 0 0 0 0 0 0 0 0 0 0.25 0"/>
<feBlend mode="normal" in2="BackgroundImageFix" result="effect1_dropShadow_33_2"/>
<feBlend mode="normal" in="SourceGraphic" in2="effect1_dropShadow_33_2" result="shape"/>
</filter>
<filter id="filter6_i_33_2" x="143.776" y="167.393" width="18.9242" height="20.9124" filterUnits="userSpaceOnUse" color-interpolation-filters="sRGB">
<feFlood flood-opacity="0" result="BackgroundImageFix"/>
<feBlend mode="normal" in="SourceGraphic" in2="BackgroundImageFix" result="shape"/>
<feColorMatrix in="SourceAlpha" type="matrix" values="0 0 0 0 0 0 0 0 0 0 0 0 0 0 0 0 0 0 127 0" result="hardAlpha"/>
<feOffset dy="10"/>
<feGaussianBlur stdDeviation="1"/>
<feComposite in2="hardAlpha" operator="arithmetic" k2="-1" k3="1"/>
<feColorMatrix type="matrix" values="0 0 0 0 0 0 0 0 0 0 0 0 0 0 0 0 0 0 0.25 0"/>
<feBlend mode="normal" in2="shape" result="effect1_innerShadow_33_2"/>
</filter>
<linearGradient id="paint0_linear_33_2" x1="256" y1="0" x2="256" y2="530.5" gradientUnits="userSpaceOnUse">
<stop stop-color="#9558FF"/>
<stop offset="1" stop-color="#5A3599"/>
</linearGradient>
<linearGradient id="paint1_linear_33_2" x1="159.771" y1="350.5" x2="383.771" y2="34.75" gradientUnits="userSpaceOnUse">
<stop stop-color="white" stop-opacity="0"/>
<stop offset="1" stop-color="white" stop-opacity="0.2"/>
</linearGradient>
<linearGradient id="paint2_linear_33_2" x1="123.387" y1="122.962" x2="197.012" y2="410.831" gradientUnits="userSpaceOnUse">
<stop stop-color="#FF9090"/>
<stop offset="1" stop-color="#FF6B6B"/>
</linearGradient>
<linearGradient id="paint3_linear_33_2" x1="240.75" y1="103" x2="145.777" y2="294.209" gradientUnits="userSpaceOnUse">
<stop stop-color="white" stop-opacity="0.6"/>
<stop offset="0.5" stop-color="white" stop-opacity="0"/>
</linearGradient>
<linearGradient id="paint4_linear_33_2" x1="162.69" y1="176.849" x2="156.803" y2="176.826" gradientUnits="userSpaceOnUse">
<stop stop-color="white" stop-opacity="0.3"/>
<stop offset="1" stop-color="white" stop-opacity="0"/>
</linearGradient>
<clipPath id="clip0_33_2">
<rect width="512" height="512" rx="128" fill="white"/>
</clipPath>
</defs>
</svg>
